<svg width="38" height="42" viewBox="0 0 38 42" fill="none" xmlns="http://www.w3.org/2000/svg">
<path fill-rule="evenodd" clip-rule="evenodd" d="M19.7655 0.44802C19.2605 0.34415 18.7396 0.34415 18.2345 0.44802C17.6507 0.568089 17.1289 0.86035 16.7141 1.0927L16.601 1.15587L2.54153 8.96669C2.50266 8.98829 2.46261 9.01035 2.42157 9.03295C1.98243 9.27483 1.43029 9.57895 1.00627 10.0391C0.639674 10.4369 0.362246 10.9084 0.192535 11.422C-0.00375985 12.0161 -0.00146325 12.6465 0.000363158 13.1478C0.000533889 13.1947 0.000700421 13.2404 0.000700421 13.2849V28.7068C0.000700421 28.7513 0.000533889 28.797 0.000363158 28.8438C-0.00146325 29.3452 -0.00375985 29.9755 0.192536 30.5697C0.362247 31.0833 0.639677 31.5548 1.00627 31.9526C1.43029 32.4127 1.98244 32.7168 2.42157 32.9587C2.46261 32.9813 2.50266 33.0034 2.54153 33.025L16.601 40.8358L16.7141 40.899C17.1289 41.1313 17.6507 41.4236 18.2345 41.5436C18.7396 41.6475 19.2605 41.6475 19.7655 41.5436C20.3493 41.4236 20.8711 41.1313 21.2859 40.899L21.399 40.8358L35.4585 33.025C35.4757 33.0154 35.4931 33.0058 35.5107 32.9961C35.5329 32.9838 35.5555 32.9713 35.5784 32.9587C36.0176 32.7169 36.5697 32.4127 36.9937 31.9526C37.3603 31.5548 37.6378 31.0833 37.8075 30.5697C38.0038 29.9755 38.0015 29.3452 37.9996 28.8438C37.9995 28.797 37.9993 28.7513 37.9993 28.7068V13.2849C37.9993 13.2404 37.9995 13.1947 37.9996 13.1478C38.0015 12.6465 38.0038 12.0161 37.8075 11.422C37.6378 10.9084 37.3603 10.4369 36.9937 10.0391C36.5697 9.57894 36.0176 9.27481 35.5784 9.03294L35.5769 9.03209C35.5364 9.00978 35.4968 8.98801 35.4585 8.96669L21.399 1.15586L21.2859 1.09269C20.8711 0.860345 20.3493 0.568088 19.7655 0.44802ZM18.4464 4.47754C18.7343 4.31759 18.8813 4.23676 18.9909 4.18388L19 4.17953L19.0091 4.18388C19.1187 4.23676 19.2657 4.31758 19.5536 4.47754L32.1871 11.4961L18.9999 18.8223L5.81285 11.4962L18.4464 4.47754ZM3.80056 14.7251L17.1 22.1137L17.1001 36.7662L4.38691 29.7033C4.08301 29.5345 3.92785 29.4474 3.81899 29.378L3.8098 29.3721L3.80911 29.3612C3.80135 29.2324 3.80056 29.0545 3.80056 28.7068V14.7251Z" fill="#5A54F2"/>
</svg>
