<svg width="81" height="80" viewBox="0 0 81 80" fill="none" xmlns="http://www.w3.org/2000/svg">
<path d="M46.613 15.9961C52.3667 21.7499 56.0992 29.2149 57.2505 37.2699L60.4967 59.9999L37.7667 56.7524C29.7117 55.6011 22.2467 51.8686 16.493 46.1149C10.8367 40.4586 7.1317 33.1461 5.91545 25.2411L3.03795 6.53488C2.86795 5.43238 3.2342 4.31488 4.02295 3.52613C4.8117 2.73738 5.9292 2.37113 7.0317 2.54113L25.7392 5.41863C33.6442 6.63488 40.9567 10.3399 46.613 15.9961Z" fill="#DB9B7C"/>
<path d="M6.2917 27.3061C6.1467 26.6224 6.0217 25.9349 5.91545 25.2411L3.03795 6.53488C2.86795 5.43238 3.2342 4.31488 4.02295 3.52613C4.8117 2.73738 5.9292 2.37113 7.0317 2.54113L25.7392 5.41863C26.4317 5.52488 27.1205 5.65113 27.8042 5.79613C28.7305 7.83988 29.2467 10.1099 29.2467 12.4999C29.2467 21.4749 21.9717 28.7499 12.9967 28.7499C10.6055 28.7499 8.33545 28.2336 6.2917 27.3061Z" fill="#EFBE9A"/>
<path d="M40.7671 57.1812L37.7671 56.7525C29.7121 55.6012 22.2471 51.8687 16.4933 46.115C14.7121 44.335 13.1246 42.3887 11.7471 40.3125V44.6362C11.7471 47.9562 13.5158 51.025 16.3896 52.6887L28.5708 59.7412C32.5533 62.045 37.6221 61.0937 40.4971 57.5L40.7671 57.1812Z" fill="#E47C6E"/>
<path d="M59.2471 50L61.1721 46.15C63.9146 40.6637 64.1033 34.2488 61.6871 28.61L59.6633 23.8875C56.4183 16.3175 49.0271 11.375 40.8096 11.2525L40.8108 11.25C42.8871 12.6275 44.8321 14.215 46.6133 15.9963C52.3671 21.75 56.0996 29.215 57.2508 37.27L59.0721 50.025L59.2471 50Z" fill="#E47C6E"/>
<path d="M77.9964 61.2499C73.9839 58.8424 69.2001 58.0662 64.6314 59.0812L60.4964 59.9999L59.5776 64.1349C58.5626 68.7037 59.3389 73.4874 61.7464 77.4999L66.7464 66.2499L77.9964 61.2499Z" fill="#E47C6E"/>
<path d="M15.4971 12.4985C14.1183 12.4985 12.9971 11.3773 12.9971 9.99853C12.9971 8.61978 14.1183 7.49854 15.4971 7.49854C16.8758 7.49854 17.9971 8.61978 17.9971 9.99853C17.9958 11.3773 16.8746 12.4985 15.4971 12.4985Z" fill="#606060"/>
<path d="M5.1268 12.8625L3.81055 11.5587L4.43305 15.605C7.74555 18.4412 11.9093 20 16.318 20H19.2455V17.5H16.318C12.0905 17.5 8.11805 15.8537 5.1268 12.8625Z" fill="#DB9B7C"/>
<path d="M35.4971 23.7487H30.4971V21.2488H34.9783L36.7471 19.4812V15H39.2471V20C39.2471 20.3325 39.1158 20.65 38.8821 20.885L36.3821 23.385C36.1471 23.6175 35.8283 23.7487 35.4971 23.7487Z" fill="#EFBE9A"/>
<path d="M20.4971 38.7487H15.4971V36.2487H19.9783L21.7471 34.4812V30H24.2471V35C24.2471 35.3325 24.1158 35.65 23.8821 35.885L21.3821 38.385C21.1471 38.6175 20.8283 38.7487 20.4971 38.7487Z" fill="#EFBE9A"/>
<path d="M31.7471 34.9987H26.7471V32.4987H31.2283L32.9971 30.7312V26.25H35.4971V31.25C35.4971 31.5825 35.3658 31.9 35.1321 32.135L32.6321 34.635C32.3971 34.8675 32.0783 34.9987 31.7471 34.9987Z" fill="#EFBE9A"/>
<path d="M42.9971 31.2487H37.9971V28.7487H42.4783L44.2471 26.9812V22.5H46.7471V27.5C46.7471 27.8325 46.6158 28.15 46.3821 28.385L43.8821 30.885C43.6471 31.1175 43.3283 31.2487 42.9971 31.2487Z" fill="#EFBE9A"/>
<path d="M27.9971 46.2487H22.9971V43.7487H27.4783L29.2471 41.9812V37.5H31.7471V42.5C31.7471 42.8325 31.6158 43.15 31.3821 43.385L28.8821 45.885C28.6471 46.1175 28.3283 46.2487 27.9971 46.2487Z" fill="#EFBE9A"/>
<path d="M39.2471 42.4987H34.2471V39.9987H38.7283L40.4971 38.2312V33.75H42.9971V38.75C42.9971 39.0825 42.8658 39.4 42.6321 39.635L40.1321 42.135C39.8971 42.3675 39.5783 42.4987 39.2471 42.4987Z" fill="#EFBE9A"/>
<path d="M50.4971 38.7487H46.7471V36.2487H49.9796L51.7471 34.4812V31.25H54.2471L54.2483 35C54.2483 35.3312 54.1171 35.65 53.8821 35.885L51.3821 38.385C51.1471 38.6175 50.8283 38.7487 50.4971 38.7487Z" fill="#EFBE9A"/>
<path d="M35.4971 53.7487H31.7471V51.2487H34.9796L36.7471 49.4812V46.25H39.2471L39.2483 50C39.2483 50.3312 39.1171 50.65 38.8821 50.885L36.3821 53.385C36.1471 53.6175 35.8283 53.7487 35.4971 53.7487Z" fill="#EFBE9A"/>
<path d="M46.7471 49.9987H41.7471V47.4987H46.2283L47.9971 45.7312V41.25H50.4971V46.25C50.4971 46.5825 50.3658 46.9 50.1321 47.135L47.6321 49.635C47.3971 49.8675 47.0783 49.9987 46.7471 49.9987Z" fill="#EFBE9A"/>
<path d="M59.6634 23.8887C59.2746 22.9812 58.8234 22.115 58.3209 21.2862L47.8809 17.3712C48.9746 18.58 49.9909 19.8475 50.9134 21.1787L59.9559 24.57L59.6634 23.8887Z" fill="#C66B60"/>
<path d="M54.827 28.3637L62.6857 31.6287C62.422 30.6062 62.1095 29.5937 61.6882 28.61L61.6345 28.4837L53.2295 24.9912C53.8107 26.0912 54.3557 27.2112 54.827 28.3637Z" fill="#C66B60"/>
<path d="M56.8598 35.1499L63.3311 37.8386C63.3748 36.9324 63.3736 36.0236 63.2998 35.1186L56.1211 32.1361C56.4086 33.1274 56.6536 34.1324 56.8598 35.1499Z" fill="#C66B60"/>
<path d="M30.6452 60.6174L29.4314 54.5474C28.4839 54.1774 27.5514 53.7712 26.6377 53.3262L27.8352 59.3124L28.5714 59.7387C29.2352 60.1249 29.9327 60.4112 30.6452 60.6174Z" fill="#C66B60"/>
<path d="M16.0693 45.6699L18.8918 54.1362L22.1568 56.0262L19.8268 49.0362C18.6693 48.1237 17.5443 47.1662 16.4943 46.1149C16.3481 45.9699 16.2118 45.8174 16.0693 45.6699Z" fill="#C66B60"/>
<path d="M78.6393 60.1774C74.3343 57.5949 69.2643 56.7724 64.3606 57.8599L61.5431 58.4862L60.4006 50.4861L62.2893 46.7074C65.2031 40.8812 65.4018 34.1049 62.8368 28.1161L60.8131 23.3937C57.4156 15.4724 49.7631 10.2937 41.1906 10.0249C36.6068 7.03615 31.4468 5.03115 25.9293 4.1824L7.22059 1.30365C5.73434 1.0774 4.20559 1.5749 3.13809 2.64115C2.07184 3.70865 1.57184 5.2349 1.80059 6.72365L4.67934 25.4311C5.52559 30.9349 7.52184 36.0799 10.4968 40.6549V44.6362C10.4968 48.3886 12.5143 51.8886 15.7618 53.7699L27.9431 60.8224C29.6181 61.7924 31.4481 62.2611 33.2543 62.2611C36.2593 62.2611 39.1931 60.9549 41.2631 58.5161L58.9831 61.0474L58.3568 63.8649C57.2681 68.7674 58.0906 73.8386 60.6743 78.1436C60.9006 78.5199 61.3081 78.7499 61.7456 78.7499C61.7718 78.7499 61.7968 78.7486 61.8218 78.7474C62.2881 78.7187 62.6993 78.4336 62.8881 78.0074L67.6931 67.1974L78.5043 62.3924C78.9306 62.2037 79.2156 61.7924 79.2443 61.3261C79.2731 60.8599 79.0381 60.4161 78.6393 60.1774ZM37.9431 55.5149C30.2068 54.4099 22.9031 50.7574 17.3768 45.2312C12.9006 40.7549 9.75309 35.2962 8.08684 29.2799C9.67184 29.7436 11.3118 29.9986 12.9968 29.9986C22.6456 29.9986 30.4968 22.1487 30.4968 12.4987C30.4968 10.8149 30.2418 9.1749 29.7768 7.5899C35.7931 9.25615 41.2518 12.4037 45.7281 16.8799C51.2543 22.4062 54.9068 29.7099 56.0118 37.4461L59.0231 58.5261L37.9431 55.5149ZM27.5068 57.6786L21.5581 54.2349L20.5281 51.1449C22.5393 52.5749 24.6918 53.7899 26.9343 54.8174L27.5068 57.6786ZM58.5143 24.3799L59.9793 27.7974L54.9943 25.7261C54.3631 24.4186 53.6593 23.1486 52.8868 21.9186L58.3131 23.9536C58.3781 24.0961 58.4518 24.2337 58.5143 24.3799ZM56.3881 29.0124L61.2418 31.0287C61.6018 32.1887 61.8306 33.3736 61.9693 34.5649L57.5718 32.7374C57.2381 31.4762 56.8456 30.2336 56.3881 29.0124ZM60.0531 45.5899L59.7781 46.1386L58.4856 37.0924C58.4193 36.6311 58.3143 36.1774 58.2318 35.7199L62.1156 37.3336C62.0418 40.1686 61.3556 42.9862 60.0531 45.5899ZM56.3231 20.5374L50.2881 18.2737C49.4093 17.1762 48.4931 16.1087 47.4968 15.1124C46.8006 14.4162 46.0781 13.7537 45.3393 13.1174C49.7468 14.2387 53.6368 16.8549 56.3231 20.5374ZM4.90559 4.40865C5.33059 3.9849 5.90934 3.7499 6.50184 3.7499C6.61434 3.7499 6.72809 3.75865 6.84059 3.77615L25.5481 6.6549C26.0043 6.7249 26.4493 6.83115 26.9018 6.9174C27.6156 8.6899 27.9968 10.5599 27.9968 12.4987C27.9968 20.7699 21.2681 27.4986 12.9968 27.4986C11.0581 27.4986 9.18684 27.1174 7.41434 26.4049C7.32809 25.9537 7.22184 25.5086 7.15184 25.0512L5.86934 16.7162C8.91559 18.8424 12.5256 19.9987 16.3181 19.9987H19.2456V17.4987H16.3181C12.1681 17.4987 8.26809 15.9049 5.29934 13.0187L4.27184 6.34365C4.16434 5.6374 4.40059 4.9149 4.90559 4.40865ZM12.9968 44.6349V44.0787C13.8206 45.0849 14.6781 46.0674 15.6093 46.9986C16.0281 47.4174 16.4768 47.8012 16.9131 48.1999L18.2943 52.3449L17.0156 51.6036C14.5356 50.1699 12.9968 47.4999 12.9968 44.6349ZM30.3606 59.1999L29.7131 55.9649C32.2593 56.9024 34.8943 57.6049 37.5893 57.9899L38.1131 58.0649C35.9081 59.7674 32.9931 60.2174 30.3606 59.1999ZM66.2381 65.1061C65.9543 65.2324 65.7293 65.4574 65.6031 65.7411L61.6731 74.5836C60.3481 71.3786 60.0331 67.8436 60.7968 64.4049L61.5431 61.0462L64.9018 60.2999C68.3431 59.5374 71.8743 59.8524 75.0806 61.1762L66.2381 65.1061Z" fill="#1A1A1A"/>
<path d="M15.4971 12.4985C16.8758 12.4985 17.9971 11.3773 17.9971 9.99853C17.9971 8.61978 16.8758 7.49854 15.4971 7.49854C14.1183 7.49854 12.9971 8.61978 12.9971 9.99853C12.9971 11.3773 14.1171 12.4985 15.4971 12.4985Z" fill="#1A1A1A"/>
<path d="M36.3808 23.3835L38.8808 20.8835C39.1158 20.6485 39.2458 20.331 39.2458 19.9985V14.9985H36.7458V19.4798L34.9783 21.2473H30.4971V23.7473H35.4971C35.8283 23.7485 36.1458 23.6173 36.3808 23.3835Z" fill="#1A1A1A"/>
<path d="M24.2458 34.9985V29.9985H21.7458V34.4798L19.9783 36.2473H15.4971V38.7473H20.4971C20.8296 38.7473 21.1471 38.616 21.3821 38.3823L23.8821 35.8823C24.1146 35.6485 24.2458 35.331 24.2458 34.9985Z" fill="#1A1A1A"/>
<path d="M35.1308 32.1335C35.3658 31.8985 35.4958 31.581 35.4958 31.2485V26.2485H32.9958V30.7298L31.2283 32.4973H26.7471V34.9973H31.7471C32.0796 34.9973 32.3971 34.866 32.6321 34.6323L35.1308 32.1335Z" fill="#1A1A1A"/>
<path d="M37.9971 31.2485H42.9971C43.3296 31.2485 43.6471 31.1173 43.8821 30.8835L46.3821 28.3835C46.6171 28.1485 46.7471 27.831 46.7471 27.4985V22.4985H44.2471V26.9798L42.4796 28.7473H37.9971V31.2485Z" fill="#1A1A1A"/>
<path d="M29.2458 41.981L27.4783 43.7485H22.9971V46.2485H27.9971C28.3296 46.2485 28.6471 46.1173 28.8821 45.8835L31.3821 43.3835C31.6171 43.1485 31.7471 42.831 31.7471 42.4985V37.4985H29.2471V41.981H29.2458Z" fill="#1A1A1A"/>
<path d="M42.9958 38.7485V33.7485H40.4958V38.2298L38.7283 39.9973H34.2471V42.4973H39.2471C39.5796 42.4973 39.8971 42.366 40.1321 42.1323L42.6321 39.6323C42.8646 39.3985 42.9958 39.081 42.9958 38.7485Z" fill="#1A1A1A"/>
<path d="M51.7458 34.481L49.9783 36.2485H46.7471V38.7485H50.4971C50.8296 38.7485 51.1471 38.6173 51.3821 38.3835L53.8821 35.8835C54.1171 35.6485 54.2471 35.331 54.2471 34.9985V31.2485H51.7471V34.481H51.7458Z" fill="#1A1A1A"/>
<path d="M36.7458 49.4812L34.9783 51.2487H31.7471V53.7487H35.4971C35.8296 53.7487 36.1471 53.6174 36.3821 53.3837L38.8821 50.8837C39.1171 50.6487 39.2471 50.3312 39.2471 49.9987V46.2487H36.7471V49.4812H36.7458Z" fill="#1A1A1A"/>
<path d="M47.9958 45.731L46.2283 47.4985H41.7471V49.9985H46.7471C47.0796 49.9985 47.3971 49.8673 47.6321 49.6335L50.1321 47.1335C50.3671 46.8985 50.4971 46.581 50.4971 46.2485V41.2485H47.9971V45.731H47.9958Z" fill="#1A1A1A"/>
</svg>
