<svg width="86" height="86" viewBox="0 0 86 86" fill="none" xmlns="http://www.w3.org/2000/svg">
<path d="M60.1561 73.285L57.7743 52.9969C57.4368 50.1233 56.1241 47.4798 54.0832 45.5636C52.0422 43.6474 49.4136 42.5904 46.6916 42.5916H38.4894C35.7686 42.5924 33.1418 43.6502 31.1024 45.5662C29.063 47.4822 27.7514 50.1246 27.4141 52.9969L25.0286 73.285C24.8977 74.3996 24.9911 75.5311 25.3028 76.6044C25.6144 77.6776 26.1371 78.668 26.8361 79.5099C27.5352 80.3517 28.3946 81.0257 29.3572 81.487C30.3198 81.9484 31.3637 82.1866 32.4195 82.1858H52.7689C53.8244 82.186 54.8678 81.9474 55.83 81.4858C56.7922 81.0242 57.6511 80.3501 58.3498 79.5084C59.0484 78.6666 59.5707 77.6764 59.8822 76.6034C60.1936 75.5304 60.287 74.3993 60.1561 73.285V73.285Z" stroke="white" stroke-width="6" stroke-linecap="round" stroke-linejoin="round"/>
<path d="M42.5941 26.754C48.7601 26.754 53.7587 21.4359 53.7587 14.8757C53.7587 8.31551 48.7601 2.99744 42.5941 2.99744C36.4281 2.99744 31.4295 8.31551 31.4295 14.8757C31.4295 21.4359 36.4281 26.754 42.5941 26.754Z" stroke="white" stroke-width="6"/>
<path d="M12.822 38.6321C16.9327 38.6321 20.2651 35.0867 20.2651 30.7133C20.2651 26.3398 16.9327 22.7944 12.822 22.7944C8.71134 22.7944 5.37897 26.3398 5.37897 30.7133C5.37897 35.0867 8.71134 38.6321 12.822 38.6321Z" stroke="white" stroke-width="6"/>
<path d="M72.3665 38.6321C76.4771 38.6321 79.8095 35.0867 79.8095 30.7133C79.8095 26.3398 76.4771 22.7944 72.3665 22.7944C68.2558 22.7944 64.9234 26.3398 64.9234 30.7133C64.9234 35.0867 68.2558 38.6321 72.3665 38.6321Z" stroke="white" stroke-width="6"/>
<path d="M12.822 50.5106H11.6832C9.92133 50.5104 8.21647 51.1752 6.87196 52.3866C5.52746 53.5981 4.6305 55.2778 4.34067 57.1268L3.1014 65.0456C2.92355 66.1802 2.98015 67.3424 3.26726 68.4513C3.55437 69.5602 4.06509 70.5893 4.76391 71.4669C5.46272 72.3445 6.33285 73.0497 7.31377 73.5333C8.2947 74.0168 9.36286 74.2673 10.444 74.2671H23.9866" stroke="white" stroke-width="6" stroke-linecap="round" stroke-linejoin="round"/>
<path d="M72.3663 50.5106H73.5051C75.267 50.5104 76.9719 51.1752 78.3164 52.3866C79.6609 53.5981 80.5578 55.2778 80.8477 57.1268L82.0869 65.0456C82.2648 66.1802 82.2082 67.3424 81.9211 68.4513C81.634 69.5602 81.1233 70.5893 80.4244 71.4669C79.7256 72.3445 78.8555 73.0497 77.8746 73.5333C76.8937 74.0168 75.8255 74.2673 74.7444 74.2671H61.2017" stroke="white" stroke-width="6" stroke-linecap="round" stroke-linejoin="round"/>
</svg>
