<svg width="80" height="80" viewBox="0 0 80 80" fill="none" xmlns="http://www.w3.org/2000/svg">
<path d="M40.1394 39.5917C45.3899 39.5917 50.4254 37.5059 54.1381 33.7932C57.8507 30.0805 59.9365 25.0451 59.9365 19.7945C59.9365 14.544 57.8507 9.50855 54.1381 5.79588C50.4254 2.0832 45.3899 -0.00256348 40.1394 -0.00256348C34.8889 -0.00256348 29.8534 2.0832 26.1407 5.79588C22.428 9.50855 20.3423 14.544 20.3423 19.7945C20.3423 25.0451 22.428 30.0805 26.1407 33.7932C29.8534 37.5059 34.8889 39.5917 40.1394 39.5917ZM53.3375 19.7945C53.3375 23.2949 51.9469 26.6519 49.4718 29.127C46.9967 31.6021 43.6397 32.9926 40.1394 32.9926C36.639 32.9926 33.2821 31.6021 30.8069 29.127C28.3318 26.6519 26.9413 23.2949 26.9413 19.7945C26.9413 16.2942 28.3318 12.9372 30.8069 10.4621C33.2821 7.98698 36.639 6.59647 40.1394 6.59647C43.6397 6.59647 46.9967 7.98698 49.4718 10.4621C51.9469 12.9372 53.3375 16.2942 53.3375 19.7945ZM79.7336 72.5868C79.7336 79.1859 73.1346 79.1859 73.1346 79.1859H7.1442C7.1442 79.1859 0.545166 79.1859 0.545166 72.5868C0.545166 65.9878 7.1442 46.1907 40.1394 46.1907C73.1346 46.1907 79.7336 65.9878 79.7336 72.5868ZM73.1346 72.5604C73.128 70.9371 72.1183 66.0538 67.6442 61.5796C63.3416 57.2771 55.2446 52.7897 40.1394 52.7897C25.0276 52.7897 16.9372 57.2771 12.6346 61.5796C8.16045 66.0538 7.1574 70.9371 7.1442 72.5604H73.1346Z" fill="white"/>
</svg>
