<svg width="23" height="23" viewBox="0 0 23 23" fill="none" xmlns="http://www.w3.org/2000/svg">
<path fill-rule="evenodd" clip-rule="evenodd" d="M11.5097 -0.000854492C12.1143 -0.000854492 12.6941 0.239324 13.1216 0.666845C13.5492 1.09437 13.7893 1.67421 13.7893 2.27881V9.11781H20.6283C21.2329 9.11781 21.8128 9.35799 22.2403 9.78551C22.6678 10.213 22.908 10.7929 22.908 11.3975C22.908 12.0021 22.6678 12.5819 22.2403 13.0094C21.8128 13.437 21.2329 13.6771 20.6283 13.6771H13.7893V20.5161C13.7893 21.1208 13.5492 21.7006 13.1216 22.1281C12.6941 22.5556 12.1143 22.7958 11.5097 22.7958C10.9051 22.7958 10.3252 22.5556 9.89769 22.1281C9.47017 21.7006 9.23 21.1208 9.23 20.5161V13.6771H2.391C1.78639 13.6771 1.20655 13.437 0.779025 13.0094C0.351505 12.5819 0.111328 12.0021 0.111328 11.3975C0.111328 10.7929 0.351505 10.213 0.779025 9.78551C1.20655 9.35799 1.78639 9.11781 2.391 9.11781H9.23V2.27881C9.23 1.67421 9.47017 1.09437 9.89769 0.666845C10.3252 0.239324 10.9051 -0.000854492 11.5097 -0.000854492Z" fill="white" fill-opacity="0.8"/>
</svg>
