<svg width="81" height="80" viewBox="0 0 81 80" fill="none" xmlns="http://www.w3.org/2000/svg">
<path d="M75.8385 53.7062C74.7468 56.9801 74.7468 60.5199 75.8385 63.7938C76.3808 65.4206 76.6573 67.1242 76.6572 68.8391V71.8312C76.6571 72.7052 76.3979 73.5595 75.9123 74.2861C75.4267 75.0128 74.7366 75.5791 73.9292 75.9136C73.1218 76.2481 72.2333 76.3356 71.3762 76.1652C70.519 75.9948 69.7316 75.5741 69.1135 74.9563L67.9072 73.75L67.1744 74.4828C66.0426 75.6144 64.5077 76.25 62.9072 76.25C61.3068 76.25 59.7719 75.6144 58.64 74.4828L57.9072 73.75L56.701 74.9563C56.0829 75.5741 55.2955 75.9948 54.4383 76.1652C53.5811 76.3356 52.6927 76.2481 51.8853 75.9136C51.0778 75.5791 50.3877 75.0128 49.9021 74.2861C49.4166 73.5595 49.1573 72.7052 49.1572 71.8312V68.8391C49.1574 67.1242 49.4339 65.4206 49.976 63.7938C51.0676 60.5199 51.0676 56.9801 49.976 53.7062C49.4427 52.1079 49.1669 50.4349 49.1588 48.75C49.1572 48.7203 49.1572 48.6906 49.1572 48.6609V31.25C49.1572 29.6647 49.4695 28.0949 50.0762 26.6303C50.6829 25.1657 51.5722 23.835 52.6932 22.7141L54.3713 21.0359C56.3284 19.0765 57.5535 16.5044 57.8416 13.75C57.8854 13.3348 57.9073 12.9175 57.9072 12.5V10H67.9072V12.5C67.9071 12.9175 67.929 13.3348 67.9729 13.75C68.261 16.5044 69.486 19.0765 71.4432 21.0359L73.1213 22.7141C75.3851 24.978 76.657 28.0484 76.6572 31.25V48.6609C76.6572 48.6906 76.6572 48.7203 76.6557 48.75C76.6525 49.5765 76.5841 50.4015 76.451 51.2172C76.3141 52.062 76.1093 52.8944 75.8385 53.7062Z" fill="#EBEBE9"/>
<path d="M75.8385 53.7062C74.7468 56.9801 74.7468 60.5199 75.8385 63.7938C76.3808 65.4206 76.6573 67.1242 76.6572 68.8391V71.8312C76.6571 72.7052 76.3979 73.5595 75.9123 74.2861C75.4267 75.0128 74.7366 75.5791 73.9292 75.9136C73.1218 76.2481 72.2333 76.3356 71.3762 76.1652C70.519 75.9948 69.7316 75.5741 69.1135 74.9562L67.9072 73.75L67.1744 74.4828C66.0426 75.6144 64.5077 76.25 62.9072 76.25C61.3068 76.25 59.7719 75.6144 58.64 74.4828L57.9072 73.75L56.701 74.9562C56.0829 75.5741 55.2955 75.9948 54.4383 76.1652C53.5811 76.3356 52.6927 76.2481 51.8853 75.9136C51.0778 75.5791 50.3877 75.0128 49.9021 74.2861C49.4166 73.5595 49.1573 72.7052 49.1572 71.8312V68.8391C49.1574 67.1242 49.4339 65.4206 49.976 63.7938C51.0661 60.5196 51.0661 56.9804 49.976 53.7062C49.4427 52.1079 49.1669 50.4349 49.1588 48.75H49.1572V31.25C49.1572 29.6647 49.4695 28.095 50.0762 26.6303C50.6829 25.1657 51.5722 23.835 52.6932 22.7141L54.3713 21.0359C55.3938 20.0141 56.2238 18.8163 56.8213 17.5H68.9932C69.5907 18.8163 70.4206 20.0141 71.4432 21.0359L73.1213 22.7141C75.0432 24.6353 76.26 27.1492 76.5744 29.8484C76.6295 30.3136 76.6571 30.7816 76.6572 31.25V48.75H76.6557C76.6525 49.5765 76.5841 50.4015 76.451 51.2172C76.3141 52.062 76.1093 52.8944 75.8385 53.7062Z" fill="#7EB457"/>
<path d="M75.8385 53.7062C74.7468 56.9801 74.7468 60.5198 75.8385 63.7937C76.3808 65.4205 76.6573 67.1242 76.6572 68.839V71.8312C76.6571 72.7052 76.3979 73.5595 75.9123 74.2861C75.4267 75.0127 74.7366 75.5791 73.9292 75.9136C73.1218 76.248 72.2333 76.3356 71.3762 76.1652C70.519 75.9948 69.7316 75.5741 69.1135 74.9562L67.9072 73.75L67.1744 74.4828C66.0426 75.6143 64.5077 76.25 62.9072 76.25C61.3068 76.25 59.7719 75.6143 58.64 74.4828L57.9072 73.75L56.701 74.9562C56.0829 75.5741 55.2955 75.9948 54.4383 76.1652C53.5811 76.3356 52.6927 76.248 51.8853 75.9136C51.0778 75.5791 50.3877 75.0127 49.9021 74.2861C49.4166 73.5595 49.1573 72.7052 49.1572 71.8312V68.839C49.1574 67.1242 49.4339 65.4206 49.976 63.7937C50.7476 61.4821 50.978 59.0241 50.6494 56.6093C60.5322 50.8296 69.5229 42.2015 76.5744 29.8484C76.6295 30.3135 76.6571 30.7815 76.6572 31.25V48.75H76.6557C76.6525 49.5765 76.5841 50.4014 76.451 51.2171C76.3141 52.062 76.1093 52.8943 75.8385 53.7062Z" fill="#79AD54"/>
<path d="M49.1572 31.25H76.6572V48.75H49.1572V31.25Z" fill="#D0D24B"/>
<path d="M76.6574 31.25V48.75H61.459C66.7309 44.0531 71.5652 38.2781 75.759 31.25H76.6574Z" fill="#C7C934"/>
<path d="M52.9072 35H55.4072V37.5H52.9072V35Z" fill="#DEE051"/>
<path d="M52.9072 40H55.4072V45H52.9072V40Z" fill="#DEE051"/>
<path d="M67.973 13.75H57.8418C57.8856 13.3348 57.9075 12.9175 57.9074 12.5V10H67.9074V12.5C67.9073 12.9175 67.9292 13.3348 67.973 13.75Z" fill="#E0E0DE"/>
<path d="M59.1572 3.75H66.6572C66.9887 3.75 67.3067 3.8817 67.5411 4.11612C67.7755 4.35054 67.9072 4.66848 67.9072 5V10H57.9072V5C57.9072 4.66848 58.0389 4.35054 58.2733 4.11612C58.5078 3.8817 58.8257 3.75 59.1572 3.75Z" fill="#7EB457"/>
<path d="M56.6572 8.75H69.1572V11.25H56.6572V8.75Z" fill="#EBEBE9"/>
<path d="M30.8385 53.7062C29.7468 56.9801 29.7468 60.5199 30.8385 63.7938C31.3808 65.4206 31.6573 67.1242 31.6572 68.8391V71.8312C31.6571 72.7052 31.3979 73.5595 30.9123 74.2861C30.4267 75.0128 29.7366 75.5791 28.9292 75.9136C28.1218 76.2481 27.2333 76.3356 26.3762 76.1652C25.519 75.9948 24.7316 75.5741 24.1135 74.9563L22.9072 73.75L22.1744 74.4828C21.0426 75.6144 19.5077 76.25 17.9072 76.25C16.3068 76.25 14.7719 75.6144 13.64 74.4828L12.9072 73.75L11.701 74.9563C11.0829 75.5741 10.2955 75.9948 9.4383 76.1652C8.58112 76.3356 7.69267 76.2481 6.88525 75.9136C6.07784 75.5791 5.38772 75.0128 4.90214 74.2861C4.41657 73.5595 4.15734 72.7052 4.15723 71.8312V68.8391C4.15741 67.1242 4.43387 65.4206 4.97598 63.7938C5.51797 62.1674 5.79443 60.4643 5.79473 58.75C5.79443 57.0357 5.51797 55.3326 4.97598 53.7062C4.44273 52.1079 4.16689 50.4349 4.15879 48.75C4.15723 48.7203 4.15723 48.6906 4.15723 48.6609V31.25C4.15724 29.6647 4.46952 28.0949 5.07622 26.6303C5.68292 25.1657 6.57216 23.835 7.69316 22.7141L9.37129 21.0359C10.3938 20.0141 11.2238 18.8163 11.8213 17.5C12.363 16.3138 12.7076 15.0472 12.8416 13.75C12.8854 13.3348 12.9073 12.9175 12.9072 12.5V10H22.9072V12.5C22.9071 12.9175 22.929 13.3348 22.9729 13.75C23.261 16.5044 24.486 19.0765 26.4432 21.0359L28.1213 22.7141C30.3851 24.978 31.657 28.0484 31.6572 31.25V48.6609C31.6572 48.6906 31.6572 48.7203 31.6557 48.75C31.6525 49.5765 31.5841 50.4015 31.451 51.2172C31.3141 52.062 31.1093 52.8944 30.8385 53.7062Z" fill="#EBEBE9"/>
<path d="M30.8385 53.7062C29.7468 56.9801 29.7468 60.5199 30.8385 63.7938C31.3808 65.4206 31.6573 67.1242 31.6572 68.8391V71.8312C31.6571 72.7052 31.3979 73.5595 30.9123 74.2861C30.4267 75.0128 29.7366 75.5791 28.9292 75.9136C28.1218 76.2481 27.2333 76.3356 26.3762 76.1652C25.519 75.9948 24.7316 75.5741 24.1135 74.9562L22.9072 73.75L22.1744 74.4828C21.0426 75.6144 19.5077 76.25 17.9072 76.25C16.3068 76.25 14.7719 75.6144 13.64 74.4828L12.9072 73.75L11.701 74.9562C11.0829 75.5741 10.2955 75.9948 9.4383 76.1652C8.58112 76.3356 7.69267 76.2481 6.88525 75.9136C6.07784 75.5791 5.38772 75.0128 4.90214 74.2861C4.41657 73.5595 4.15734 72.7052 4.15723 71.8312V68.8391C4.15741 67.1242 4.43387 65.4206 4.97598 63.7938C5.51797 62.1674 5.79443 60.4643 5.79473 58.75C5.79472 58.034 5.74617 57.3188 5.64941 56.6094C5.5156 55.6228 5.29015 54.6509 4.97598 53.7062C4.44273 52.1079 4.16689 50.4349 4.15879 48.75H4.15723V31.25C4.15724 29.6647 4.46952 28.095 5.07622 26.6303C5.68292 25.1657 6.57216 23.835 7.69316 22.7141L9.37129 21.0359C10.3938 20.0141 11.2238 18.8163 11.8213 17.5H23.9932C24.5907 18.8163 25.4206 20.0141 26.4432 21.0359L28.1213 22.7141C30.0432 24.6353 31.26 27.1492 31.5744 29.8484C31.6295 30.3136 31.6571 30.7816 31.6572 31.25V48.75H31.6557C31.6525 49.5765 31.5841 50.4015 31.451 51.2172C31.3141 52.062 31.1093 52.8944 30.8385 53.7062Z" fill="#FA6D00"/>
<path d="M30.8385 53.7062C29.7468 56.9801 29.7468 60.5198 30.8385 63.7937C31.3808 65.4205 31.6573 67.1242 31.6572 68.839V71.8312C31.6571 72.7052 31.3979 73.5595 30.9123 74.2861C30.4267 75.0127 29.7366 75.5791 28.9292 75.9136C28.1218 76.248 27.2333 76.3356 26.3762 76.1652C25.519 75.9948 24.7316 75.5741 24.1135 74.9562L22.9072 73.75L22.1744 74.4828C21.0426 75.6143 19.5077 76.25 17.9072 76.25C16.3068 76.25 14.7719 75.6143 13.64 74.4828L12.9072 73.75L11.701 74.9562C11.0829 75.5741 10.2955 75.9948 9.4383 76.1652C8.58112 76.3356 7.69267 76.248 6.88525 75.9136C6.07784 75.5791 5.38772 75.0127 4.90214 74.2861C4.41657 73.5595 4.15734 72.7052 4.15723 71.8312V68.839C4.15741 67.1242 4.43387 65.4206 4.97598 63.7937C5.51797 62.1673 5.79443 60.4643 5.79473 58.75C5.79472 58.0339 5.74617 57.3188 5.64941 56.6093C15.5322 50.8296 24.5229 42.2015 31.5744 29.8484C31.6295 30.3135 31.6571 30.7815 31.6572 31.25V48.75H31.6557C31.6525 49.5765 31.5841 50.4014 31.451 51.2171C31.3141 52.062 31.1093 52.8943 30.8385 53.7062Z" fill="#F86400"/>
<path d="M4.15723 31.25H31.6572V48.75H4.15723V31.25Z" fill="#F98500"/>
<path d="M31.6574 31.25V48.75H16.459C21.7309 44.0531 26.5652 38.2781 30.759 31.25H31.6574Z" fill="#F77C00"/>
<path d="M22.973 13.75H12.8418C12.8856 13.3348 12.9075 12.9175 12.9074 12.5V10H22.9074V12.5C22.9073 12.9175 22.9292 13.3348 22.973 13.75Z" fill="#E0E0DE"/>
<path d="M14.1572 3.75H21.6572C21.9887 3.75 22.3067 3.8817 22.5411 4.11612C22.7755 4.35054 22.9072 4.66848 22.9072 5V10H12.9072V5C12.9072 4.66848 13.0389 4.35054 13.2733 4.11612C13.5078 3.8817 13.8257 3.75 14.1572 3.75Z" fill="#FA6D00"/>
<path d="M11.6572 8.75H24.1572V11.25H11.6572V8.75Z" fill="#EBEBE9"/>
<path d="M53.3385 53.7062C52.2468 56.9801 52.2468 60.5199 53.3385 63.7938C53.8808 65.4206 54.1573 67.1242 54.1572 68.8391V71.8312C54.1571 72.7052 53.8979 73.5595 53.4123 74.2861C52.9267 75.0128 52.2366 75.5791 51.4292 75.9136C50.6218 76.2481 49.7333 76.3356 48.8762 76.1652C48.019 75.9948 47.2316 75.5741 46.6135 74.9563L45.4072 73.75L44.6744 74.4828C43.5426 75.6144 42.0077 76.25 40.4072 76.25C38.8068 76.25 37.2719 75.6144 36.14 74.4828L35.4072 73.75L34.201 74.9563C33.5829 75.5741 32.7955 75.9948 31.9383 76.1652C31.0811 76.3356 30.1927 76.2481 29.3853 75.9136C28.5778 75.5791 27.8877 75.0128 27.4021 74.2861C26.9166 73.5595 26.6573 72.7052 26.6572 71.8312V68.8391C26.6574 67.1242 26.9339 65.4206 27.476 63.7938C28.5676 60.5199 28.5676 56.9801 27.476 53.7062C26.9427 52.1079 26.6669 50.4349 26.6588 48.75C26.6572 48.7203 26.6572 48.6906 26.6572 48.6609V31.25C26.6572 29.6647 26.9695 28.0949 27.5762 26.6303C28.1829 25.1657 29.0722 23.835 30.1932 22.7141L31.8713 21.0359C33.8284 19.0765 35.0535 16.5044 35.3416 13.75C35.3854 13.3348 35.4073 12.9175 35.4072 12.5V10H45.4072V12.5C45.4071 12.9175 45.429 13.3348 45.4729 13.75C45.761 16.5044 46.986 19.0765 48.9432 21.0359L50.6213 22.7141C52.8851 24.978 54.157 28.0484 54.1572 31.25V48.6609C54.1572 48.6906 54.1572 48.7203 54.1557 48.75C54.1525 49.5765 54.0841 50.4015 53.951 51.2172C53.8141 52.062 53.6093 52.8944 53.3385 53.7062Z" fill="#EBEBE9"/>
<path d="M53.3385 53.7062C52.2468 56.9801 52.2468 60.5199 53.3385 63.7938C53.8808 65.4206 54.1573 67.1242 54.1572 68.8391V71.8312C54.1571 72.7052 53.8979 73.5595 53.4123 74.2861C52.9267 75.0128 52.2366 75.5791 51.4292 75.9136C50.6218 76.2481 49.7333 76.3356 48.8762 76.1652C48.019 75.9948 47.2316 75.5741 46.6135 74.9562L45.4072 73.75L44.6744 74.4828C43.5426 75.6144 42.0077 76.25 40.4072 76.25C38.8068 76.25 37.2719 75.6144 36.14 74.4828L35.4072 73.75L34.201 74.9562C33.5829 75.5741 32.7955 75.9948 31.9383 76.1652C31.0811 76.3356 30.1927 76.2481 29.3853 75.9136C28.5778 75.5791 27.8877 75.0128 27.4021 74.2861C26.9166 73.5595 26.6573 72.7052 26.6572 71.8312V68.8391C26.6574 67.1242 26.9339 65.4206 27.476 63.7938C28.5661 60.5196 28.5661 56.9804 27.476 53.7062C26.9427 52.1079 26.6669 50.4349 26.6588 48.75H26.6572V31.25C26.6572 29.6647 26.9695 28.095 27.5762 26.6303C28.1829 25.1657 29.0722 23.835 30.1932 22.7141L31.8713 21.0359C32.8938 20.0141 33.7238 18.8163 34.3213 17.5H46.4932C47.0907 18.8163 47.9206 20.0141 48.9432 21.0359L50.6213 22.7141C52.5432 24.6353 53.76 27.1492 54.0744 29.8484C54.1295 30.3136 54.1571 30.7816 54.1572 31.25V48.75H54.1557C54.1525 49.5765 54.0841 50.4015 53.951 51.2172C53.8141 52.062 53.6093 52.8944 53.3385 53.7062Z" fill="#693924"/>
<path d="M53.3385 53.7062C52.2468 56.9801 52.2468 60.5198 53.3385 63.7937C53.8808 65.4205 54.1573 67.1242 54.1572 68.839V71.8312C54.1571 72.7052 53.8979 73.5595 53.4123 74.2861C52.9267 75.0127 52.2366 75.5791 51.4292 75.9136C50.6218 76.248 49.7333 76.3356 48.8762 76.1652C48.019 75.9948 47.2316 75.5741 46.6135 74.9562L45.4072 73.75L44.6744 74.4828C43.5426 75.6143 42.0077 76.25 40.4072 76.25C38.8068 76.25 37.2719 75.6143 36.14 74.4828L35.4072 73.75L34.201 74.9562C33.5829 75.5741 32.7955 75.9948 31.9383 76.1652C31.0811 76.3356 30.1927 76.248 29.3853 75.9136C28.5778 75.5791 27.8877 75.0127 27.4021 74.2861C26.9166 73.5595 26.6573 72.7052 26.6572 71.8312V68.839C26.6574 67.1242 26.9339 65.4206 27.476 63.7937C28.2476 61.4821 28.478 59.0241 28.1494 56.6093C38.0322 50.8296 47.0229 42.2015 54.0744 29.8484C54.1295 30.3135 54.1571 30.7815 54.1572 31.25V48.75H54.1557C54.1525 49.5765 54.0841 50.4014 53.951 51.2171C53.8141 52.062 53.6093 52.8943 53.3385 53.7062Z" fill="#5C2E1A"/>
<path d="M26.6572 31.25H54.1572V48.75H26.6572V31.25Z" fill="#F35244"/>
<path d="M54.1574 31.25V48.75H38.959C44.2309 44.0531 49.0652 38.2781 53.259 31.25H54.1574Z" fill="#E64C3F"/>
<path d="M45.473 13.75H35.3418C35.3856 13.3348 35.4075 12.9175 35.4074 12.5V10H45.4074V12.5C45.4073 12.9175 45.4292 13.3348 45.473 13.75Z" fill="#E0E0DE"/>
<path d="M36.6572 3.75H44.1572C44.4887 3.75 44.8067 3.8817 45.0411 4.11612C45.2755 4.35054 45.4072 4.66848 45.4072 5V10H35.4072V5C35.4072 4.66848 35.5389 4.35054 35.7733 4.11612C36.0078 3.8817 36.3257 3.75 36.6572 3.75Z" fill="#F35244"/>
<path d="M34.1572 8.75H46.6572V11.25H34.1572V8.75Z" fill="#EBEBE9"/>
<path d="M66.6572 38.75V47.9172C66.6574 50.9309 65.9556 53.9032 64.6072 56.5984C63.4856 58.8455 62.8092 61.2883 62.6151 63.7922L61.6572 76.25H46.6572L45.6994 63.7922C45.5057 61.2882 44.8292 58.8454 43.7072 56.5984C42.358 53.9035 41.656 50.931 41.6572 47.9172V38.75H66.6572Z" fill="#EBEBE9"/>
<path d="M66.6572 45V47.9172C66.6572 48.4781 66.6322 49.0375 66.5854 49.5937C66.3736 52.0325 65.7024 54.4092 64.6072 56.5984C63.4856 58.8455 62.8092 61.2883 62.6151 63.7922L61.6572 76.25H46.6572L46.165 69.85L45.6994 63.7922C45.5057 61.2882 44.8292 58.8454 43.7072 56.5984C42.358 53.9035 41.656 50.931 41.6572 47.9172V45H66.6572Z" fill="#F98500"/>
<path d="M66.5854 49.5939C66.3736 52.0326 65.7024 54.4093 64.6072 56.5986C63.4856 58.8456 62.8091 61.2884 62.615 63.7923L61.6572 76.2501H46.6572L46.165 69.8501C53.5557 65.072 60.5025 58.4611 66.5854 49.5939Z" fill="#F77C00"/>
<path d="M76.8933 26.1527C76.225 24.5355 75.2434 23.0665 74.0051 21.8302L72.327 20.152C70.2993 18.1214 69.1594 15.3697 69.1572 12.5V11.25H70.4072V8.75H69.1572V5C69.1564 4.3372 68.8927 3.70177 68.4241 3.2331C67.9554 2.76443 67.32 2.50079 66.6572 2.5H59.1571C58.4943 2.50079 57.8589 2.76443 57.3902 3.2331C56.9216 3.70177 56.6579 4.3372 56.6571 5V8.75H55.4071V11.25H56.6571V12.5C56.655 15.3697 55.5151 18.1214 53.4873 20.152L55.2551 21.9198C57.7517 19.4204 59.155 16.0327 59.1571 12.5V11.25H66.6572V12.5C66.6594 16.0327 68.0626 19.4204 70.5592 21.9198L72.2373 23.598C73.9624 25.3212 75.0533 27.5777 75.3323 30H57.9071V32.5H75.4072V47.5H70.4072V50H75.3447C75.3134 50.3405 75.2725 50.68 75.2176 51.0156C75.0913 51.7945 74.9025 52.562 74.6529 53.3106C73.4758 56.8411 73.4758 60.6581 74.6529 64.1886C75.1531 65.688 75.4078 67.2584 75.4072 68.8391V71.8313C75.4071 72.458 75.2212 73.0706 74.873 73.5917C74.5247 74.1128 74.0298 74.519 73.4508 74.7588C72.8718 74.9987 72.2346 75.0615 71.6199 74.9392C71.0052 74.817 70.4406 74.5153 69.9973 74.0722L68.7911 72.8661C68.675 72.75 68.5372 72.6579 68.3855 72.5951C68.2339 72.5323 68.0713 72.5 67.9072 72.5C67.743 72.5 67.5804 72.5323 67.4288 72.5951C67.2771 72.6579 67.1393 72.75 67.0232 72.8661L66.2903 73.5989C66.1437 73.7457 65.9877 73.8827 65.8232 74.0091L67.3467 75.9912C67.5406 75.8422 67.7268 75.6834 67.9048 75.5156L68.2293 75.8402C69.0222 76.6331 70.0323 77.1732 71.1321 77.392C72.2319 77.6108 73.3718 77.4985 74.4078 77.0694C75.4437 76.6402 76.3291 75.9135 76.952 74.9811C77.5749 74.0487 77.9073 72.9526 77.9072 71.8313V68.8391C77.9078 66.99 77.6097 65.1529 77.0243 63.3989C76.0184 60.3819 76.0184 57.12 77.0243 54.103C77.3161 53.2273 77.537 52.3296 77.685 51.4186C77.8267 50.5489 77.9005 49.6695 77.9058 48.7883C77.9058 48.7755 77.9076 48.763 77.9076 48.75V31.25C77.9089 29.5006 77.5641 27.7683 76.8933 26.1527ZM59.1571 8.75V5H66.6572V8.75H59.1571Z" fill="#1A1A1A"/>
<path d="M21.2904 73.5989C20.393 74.496 19.1761 74.9999 17.9073 75C16.6391 74.9964 15.4235 74.493 14.5242 73.5989L13.7912 72.8661C13.6751 72.75 13.5373 72.6579 13.3856 72.5951C13.234 72.5323 13.0714 72.4999 12.9073 72.4999C12.7431 72.4999 12.5806 72.5323 12.4289 72.5951C12.2772 72.6579 12.1394 72.75 12.0234 72.8661L10.8171 74.0722C10.3739 74.5153 9.80921 74.817 9.19451 74.9392C8.5798 75.0614 7.94266 74.9987 7.36364 74.7588C6.78461 74.519 6.2897 74.1128 5.94148 73.5917C5.59325 73.0706 5.40735 72.458 5.40728 71.8312V68.8391C5.40747 67.2585 5.66229 65.6883 6.16196 64.1887C6.74687 62.4351 7.04497 60.5986 7.04478 58.75C7.04493 56.9012 6.74683 55.0646 6.16196 53.3108C5.80409 52.2376 5.57181 51.1266 5.46978 50H22.9073V47.5H5.40728V32.5H22.9073V30H5.48118C5.75612 27.5763 6.848 25.3184 8.57712 23.598L10.2552 21.9198C11.1892 20.9859 11.9782 19.9175 12.5959 18.75H23.2188C23.8365 19.9175 24.6254 20.9859 25.5593 21.9198L27.3271 20.152C25.2994 18.1214 24.1595 15.3697 24.1573 12.5V11.25H25.4073V8.75H24.1573V5C24.1565 4.3372 23.8928 3.70177 23.4242 3.2331C22.9555 2.76443 22.3201 2.50079 21.6573 2.5H14.1573C13.4945 2.50079 12.859 2.76443 12.3904 3.2331C11.9217 3.70177 11.6581 4.3372 11.6573 5V8.75H10.4073V11.25H11.6573V12.5C11.6597 14.0472 11.3274 15.5766 10.6832 16.9833C10.1482 18.1632 9.40432 19.2367 8.48743 20.152L6.80931 21.8302C5.56836 23.0643 4.58451 24.5323 3.91473 26.1492C3.24494 27.7661 2.90252 29.4998 2.90728 31.25V48.75C2.90728 48.7628 2.90884 48.7752 2.90915 48.7878C2.92071 50.594 3.21803 52.387 3.79009 54.1003C4.29015 55.5995 4.54499 57.1696 4.54478 58.75C4.54498 60.3295 4.2903 61.8987 3.79056 63.397C3.20593 65.1519 2.90768 66.9894 2.90728 68.8391V71.8312C2.9072 72.9525 3.23964 74.0486 3.86254 74.981C4.48545 75.9133 5.37086 76.64 6.40678 77.0691C7.4427 77.4982 8.58261 77.6105 9.68234 77.3918C10.7821 77.173 11.7922 76.633 12.5851 75.8401L12.9096 75.5155C14.2644 76.7855 16.0503 77.4947 17.9073 77.5C19.8391 77.4996 21.6919 76.7324 23.0584 75.3669L23.7912 74.6339L22.0234 72.8661L21.2904 73.5989ZM14.1573 11.25H21.6573V12.5C21.6559 13.7694 21.8372 15.0323 22.1957 16.25H13.6188C13.9774 15.0323 14.1587 13.7694 14.1573 12.5V11.25ZM14.1573 5H21.6573V8.75H14.1573V5Z" fill="#1A1A1A"/>
<path d="M7.90723 35H10.4072V37.5H7.90723V35Z" fill="#1A1A1A"/>
<path d="M7.90723 40H10.4072V45H7.90723V40Z" fill="#1A1A1A"/>
<path d="M40.4072 75C39.1391 74.9964 37.9234 74.493 37.0241 73.5989L36.2911 72.8661C36.1751 72.75 36.0373 72.6579 35.8856 72.5951C35.7339 72.5323 35.5714 72.5 35.4072 72.5C35.2431 72.5 35.0805 72.5323 34.9289 72.5951C34.7772 72.6579 34.6394 72.75 34.5233 72.8661L33.3171 74.0722C32.8739 74.5155 32.3092 74.8175 31.6945 74.9398C31.0797 75.0621 30.4424 74.9994 29.8633 74.7595C29.2842 74.5196 28.7892 74.1134 28.441 73.5921C28.0928 73.0709 27.9071 72.4581 27.9072 71.8313V68.8391C27.9074 67.2585 28.1622 65.6883 28.6619 64.1888C29.839 60.6583 29.839 56.8412 28.6619 53.3108C28.304 52.2376 28.0718 51.1266 27.9697 50H37.9072V47.5H27.9072V32.5H52.9072V35H55.4072V31.25C55.4079 28.3166 54.4391 25.4652 52.6514 23.1394C52.3055 22.6855 49.8271 20.152 49.8271 20.152C47.7994 18.1214 46.6595 15.3697 46.6572 12.5V11.25H47.9072V8.75H46.6572V5C46.6564 4.3372 46.3928 3.70177 45.9241 3.2331C45.4555 2.76443 44.82 2.50079 44.1572 2.5H36.6572C35.9944 2.50079 35.359 2.76443 34.8903 3.2331C34.4217 3.70177 34.158 4.3372 34.1572 5V8.75H32.9072V11.25H34.1572V12.5C34.1552 15.3697 33.0153 18.1215 30.9874 20.152L29.3093 21.8302C28.8997 22.2392 28.5179 22.675 28.1663 23.1348C26.3817 25.4642 25.4123 28.3156 25.4072 31.25V48.75C25.4072 48.7628 25.4088 48.7753 25.4091 48.788C25.4207 50.5942 25.718 52.3872 26.29 54.1005C27.296 57.1175 27.296 60.3794 26.29 63.3964C25.7055 65.1515 25.4074 66.9892 25.4072 68.8391V71.8313C25.4108 72.8968 25.7129 73.94 26.2793 74.8426C26.8457 75.7451 27.6537 76.4709 28.6116 76.9375C29.671 77.449 30.8634 77.6181 32.0233 77.4216C33.1832 77.2251 34.2532 76.6725 35.085 75.8406L35.4096 75.5159C36.7644 76.7858 38.5503 77.4948 40.4072 77.5C41.3639 77.5008 42.3112 77.3124 43.1947 76.9455L42.2386 74.6356C41.6582 74.8767 41.0358 75.0005 40.4072 75ZM36.6572 11.25H44.1572V12.5C44.1558 13.7694 44.3371 15.0323 44.6957 16.25H36.1188C36.4773 15.0323 36.6586 13.7694 36.6572 12.5V11.25ZM36.6572 5H44.1572V8.75H36.6572V5ZM30.1514 24.6545C30.4299 24.2892 32.7552 21.9202 32.7552 21.9202C33.6892 20.9861 34.4781 19.9176 35.0958 18.75H45.7188C46.3364 19.9175 47.1253 20.9859 48.0593 21.9198C48.0593 21.9198 50.3846 24.2892 50.6675 24.6605C51.8606 26.2107 52.609 28.0566 52.8324 30H27.9821C28.2112 28.0555 28.9606 26.2088 30.1514 24.6545Z" fill="#1A1A1A"/>
<path d="M30.4072 35H32.9072V37.5H30.4072V35Z" fill="#1A1A1A"/>
<path d="M30.4072 40H32.9072V45H30.4072V40Z" fill="#1A1A1A"/>
<path d="M67.9072 38.75C67.9072 38.4185 67.7755 38.1005 67.5411 37.8661C67.3067 37.6317 66.9888 37.5 66.6572 37.5H41.6572C41.3257 37.5 41.0078 37.6317 40.7733 37.8661C40.5389 38.1005 40.4072 38.4185 40.4072 38.75V47.9172C40.4061 51.1249 41.1531 54.2886 42.5889 57.157C43.6408 59.2586 44.274 61.5447 44.4532 63.888L45.4108 76.3458C45.435 76.6598 45.5767 76.9532 45.8078 77.1671C46.0389 77.3811 46.3423 77.5 46.6572 77.5H61.6572C61.9722 77.5 62.2755 77.3811 62.5066 77.1671C62.7377 76.9532 62.8795 76.6598 62.9036 76.3458L63.8613 63.8886C64.0429 61.5458 64.6758 59.2603 65.7251 57.1578C67.1567 54.2876 67.9036 51.1246 67.9072 47.9172V38.75ZM65.4072 40V43.75H42.9072V40H65.4072ZM63.489 56.04C62.2951 58.4315 61.5751 61.0313 61.3686 63.6963L60.4997 75H47.8147L46.9458 63.6956C46.7418 61.0302 46.0215 58.4298 44.8249 56.0394C43.5625 53.518 42.9059 50.7369 42.9072 47.9172V46.25H65.4072V47.9172C65.404 50.7366 64.7474 53.517 63.489 56.04Z" fill="#1A1A1A"/>
<path d="M50.4072 66.25H52.9072V68.75H50.4072V66.25Z" fill="#1A1A1A"/>
<path d="M54.1572 61.25H56.6572V63.75H54.1572V61.25Z" fill="#1A1A1A"/>
<path d="M51.6572 52.5H54.1572V55H51.6572V52.5Z" fill="#1A1A1A"/>
</svg>
