<svg width="81" height="80" viewBox="0 0 81 80" fill="none" xmlns="http://www.w3.org/2000/svg">
<path d="M46.3809 71.25H6.38086C6.38086 71.25 3.88086 51.25 3.88086 40C3.88086 28.75 6.38086 8.75 6.38086 8.75H46.3809C46.3809 8.75 48.8809 28.75 48.8809 40C48.8809 51.25 46.3809 71.25 46.3809 71.25Z" fill="#13DA63"/>
<path d="M26.3809 28.75C33.2844 28.75 38.8809 25.9518 38.8809 22.5C38.8809 19.0482 33.2844 16.25 26.3809 16.25C19.4773 16.25 13.8809 19.0482 13.8809 22.5C13.8809 25.9518 19.4773 28.75 26.3809 28.75Z" fill="#A82A27"/>
<path d="M46.3809 8.75H6.38086L3.88086 3.75H48.8809L46.3809 8.75Z" fill="#0AAD4B"/>
<path d="M6.38086 71.25H46.3809L48.8809 76.25H3.88086L6.38086 71.25Z" fill="#0AAD4B"/>
<path d="M28.0283 41.25C32.8608 41.25 36.7783 42.1078 36.7783 46.25C36.7783 50.3922 32.8608 53.75 28.0283 53.75C23.1958 53.75 19.2783 50.3922 19.2783 46.25C19.2783 42.1078 23.1958 41.25 28.0283 41.25Z" fill="#E09F2C"/>
<path d="M22.753 41.8306C26.17 45.2476 28.3336 48.6243 25.4047 51.5532C22.4758 54.4821 17.3313 54.0865 13.9141 50.6693C10.4969 47.2521 10.1016 42.1078 13.0303 39.1789C15.9591 36.25 19.336 38.4134 22.753 41.8306Z" fill="#F7B030"/>
<path d="M31.3809 28.75H66.3809V76.25H31.3809V28.75Z" fill="#F7B030"/>
<path d="M66.3809 28.75H76.3809V76.25H66.3809V28.75Z" fill="#E09F2C"/>
<path d="M48.8809 63.75C53.7134 63.75 57.6309 59.8325 57.6309 55C57.6309 50.1675 53.7134 46.25 48.8809 46.25C44.0484 46.25 40.1309 50.1675 40.1309 55C40.1309 59.8325 44.0484 63.75 48.8809 63.75Z" fill="#D49073"/>
<path d="M38.8809 35H58.8809V40H38.8809V35Z" fill="#AD6643"/>
<path d="M32.6309 21.25H20.1309C19.7993 21.25 19.4814 21.3817 19.247 21.6161C19.0126 21.8505 18.8809 22.1685 18.8809 22.5C18.8809 22.8315 19.0126 23.1495 19.247 23.3839C19.4814 23.6183 19.7993 23.75 20.1309 23.75H32.6309C32.9624 23.75 33.2803 23.6183 33.5147 23.3839C33.7492 23.1495 33.8809 22.8315 33.8809 22.5C33.8809 22.1685 33.7492 21.8505 33.5147 21.6161C33.2803 21.3817 32.9624 21.25 32.6309 21.25Z" fill="#1A1A1A"/>
<path d="M76.3809 27.5H49.534C48.883 19.1364 47.8921 10.8164 47.6676 8.97172L49.9988 4.30906C50.0941 4.11849 50.1391 3.90672 50.1296 3.69386C50.12 3.48101 50.0562 3.27413 49.9442 3.09288C49.8321 2.91162 49.6757 2.76201 49.4896 2.65824C49.3035 2.55448 49.0939 2.50001 48.8809 2.5H3.88086C3.66779 2.50001 3.45825 2.55448 3.27216 2.65824C3.08606 2.76201 2.92958 2.91162 2.81756 3.09288C2.70555 3.27413 2.64173 3.48101 2.63216 3.69386C2.62259 3.90672 2.66759 4.11849 2.76289 4.30906L5.0943 8.97187C4.75258 11.7827 2.63086 29.6514 2.63086 40C2.63086 50.3486 4.75258 68.2173 5.0943 71.0281L2.76289 75.6909C2.66759 75.8815 2.62259 76.0933 2.63216 76.3061C2.64173 76.519 2.70555 76.7259 2.81756 76.9071C2.92958 77.0884 3.08606 77.238 3.27216 77.3418C3.45825 77.4455 3.66779 77.5 3.88086 77.5H76.3809C76.7124 77.5 77.0303 77.3683 77.2647 77.1339C77.4992 76.8995 77.6309 76.5815 77.6309 76.25V28.75C77.6309 28.4185 77.4992 28.1005 77.2647 27.8661C77.0303 27.6317 76.7124 27.5 76.3809 27.5ZM46.8584 5L45.6084 7.5H7.15336L5.90336 5H46.8584ZM30.1309 75H5.90336L7.15336 72.5H30.1309V75ZM30.1309 52.2487C28.9014 52.5481 27.622 52.5804 26.379 52.3434C29.6968 48.9141 27.3416 45.0711 25.232 42.6342C26.1611 42.5387 27.0948 42.4939 28.0288 42.5C28.8041 42.5 29.4999 42.5228 30.131 42.5692L30.1309 52.2487ZM24.5215 50.6694C23.3671 51.8237 21.7402 52.3836 19.9391 52.2448C18.066 52.1008 16.2407 51.2273 14.7985 49.7855C13.3563 48.3436 12.4834 46.5181 12.3393 44.6448C12.2007 42.8444 12.7602 41.2169 13.9148 40.0625C14.591 39.3862 15.2785 39.0566 16.0526 39.0566C16.4721 39.064 16.8869 39.1457 17.2779 39.298C18.546 39.7641 20.0051 40.8495 21.8696 42.7142C26.5301 47.375 25.898 49.2922 24.5215 50.6694ZM30.1309 40.0641C29.4874 40.0217 28.792 40 28.0287 40C26.022 40 24.4374 40.1453 23.1324 40.4531C21.2285 38.6202 19.6304 37.5 18.1399 36.9531C15.9157 36.1355 13.843 36.6 12.1463 38.2969C10.4677 39.9738 9.65086 42.2969 9.84617 44.837C10.036 47.3047 11.1668 49.6898 13.0304 51.5533C14.894 53.4167 17.2791 54.5477 19.7466 54.7375C19.9936 54.7564 20.2384 54.7658 20.481 54.7658C21.5903 54.7717 22.69 54.5609 23.7184 54.1452C25.085 54.7105 26.5497 55.001 28.0287 55C28.7339 54.9999 29.4377 54.9345 30.1309 54.8047V70H7.48867C6.97336 65.6758 5.13086 49.5481 5.13086 40C5.13086 30.4519 6.97336 14.3245 7.48867 10H45.2732C45.5971 12.7139 46.4435 20.0711 47.0263 27.5H36.7474C38.9387 26.1519 40.1309 24.4034 40.1309 22.5C40.1309 20.3323 38.5852 18.3658 35.7787 16.9627C33.2476 15.6969 29.9101 15 26.3809 15C22.8516 15 19.5141 15.6969 16.983 16.9627C14.1765 18.3658 12.6309 20.3323 12.6309 22.5C12.6309 24.6677 14.1765 26.6342 16.983 28.0373C19.5141 29.3031 22.8516 30 26.3809 30C27.6358 30.0012 28.8892 29.9102 30.1309 29.7277V40.0641ZM26.3809 27.5C19.751 27.5 15.1309 24.865 15.1309 22.5C15.1309 20.135 19.751 17.5 26.3809 17.5C33.0107 17.5 37.6309 20.135 37.6309 22.5C37.6309 24.865 33.0107 27.5 26.3809 27.5ZM65.1309 75H32.6309V30H65.1309V75ZM75.1309 75H67.6309V30H75.1309V75Z" fill="#1A1A1A"/>
<path d="M48.8809 45C46.9031 45 44.9697 45.5865 43.3252 46.6853C41.6807 47.7841 40.3989 49.3459 39.6421 51.1732C38.8852 53.0004 38.6872 55.0111 39.073 56.9509C39.4589 58.8907 40.4113 60.6725 41.8098 62.0711C43.2083 63.4696 44.9902 64.422 46.93 64.8079C48.8698 65.1937 50.8804 64.9957 52.7077 64.2388C54.535 63.4819 56.0967 62.2002 57.1956 60.5557C58.2944 58.9112 58.8809 56.9778 58.8809 55C58.8779 52.3487 57.8234 49.8069 55.9486 47.9322C54.0739 46.0575 51.5321 45.003 48.8809 45ZM48.8809 62.5C48.2761 62.4998 47.6736 62.4264 47.0865 62.2813C47.2733 62.1535 47.4219 61.9774 47.5165 61.7717C47.6111 61.5661 47.648 61.3386 47.6234 61.1136C47.5988 60.8886 47.5136 60.6746 47.3768 60.4942C47.2401 60.3139 47.0569 60.174 46.8469 60.0896C46.6369 60.0052 46.4079 59.9795 46.1843 60.015C45.9608 60.0506 45.7512 60.1462 45.5777 60.2916C45.4043 60.437 45.2736 60.6268 45.1995 60.8407C45.1255 61.0546 45.111 61.2846 45.1574 61.5061C44.2414 60.9834 43.4461 60.273 42.8237 59.4215C42.2013 58.57 41.7658 57.5967 41.5457 56.5652C41.3256 55.5337 41.3259 54.4674 41.5466 53.436C41.7673 52.4047 42.2034 51.4316 42.8263 50.5805C42.6519 50.854 42.5901 51.1844 42.6539 51.5025C42.7177 51.8205 42.9021 52.1016 43.1684 52.2868C43.4348 52.4719 43.7625 52.5468 44.0828 52.4957C44.4032 52.4447 44.6914 52.2716 44.887 52.0129C45.0826 51.7541 45.1705 51.4296 45.1322 51.1075C45.0939 50.7853 44.9325 50.4905 44.6817 50.2848C44.4309 50.079 44.1102 49.9783 43.7868 50.0037C43.4634 50.0291 43.1624 50.1787 42.9468 50.4211C43.6463 49.5124 44.5451 48.7765 45.574 48.2701C46.6028 47.7636 47.7341 47.5002 48.8809 47.5C48.8816 47.7953 48.9868 48.0808 49.1779 48.3059C49.369 48.531 49.6336 48.6812 49.9248 48.7299C50.2161 48.7785 50.5152 48.7225 50.769 48.5718C51.0229 48.421 51.2153 48.1853 51.312 47.9063C52.992 48.4813 54.4134 49.6338 55.3233 51.1586C56.2331 52.6835 56.5724 54.4818 56.2806 56.2333C55.9888 57.9849 55.085 59.576 53.7299 60.7236C52.3749 61.8712 50.6566 62.5007 48.8809 62.5Z" fill="#1A1A1A"/>
<path d="M45.1309 57.5C45.8212 57.5 46.3809 56.9404 46.3809 56.25C46.3809 55.5596 45.8212 55 45.1309 55C44.4405 55 43.8809 55.5596 43.8809 56.25C43.8809 56.9404 44.4405 57.5 45.1309 57.5Z" fill="#1A1A1A"/>
<path d="M51.3809 60C52.0712 60 52.6309 59.4404 52.6309 58.75C52.6309 58.0596 52.0712 57.5 51.3809 57.5C50.6905 57.5 50.1309 58.0596 50.1309 58.75C50.1309 59.4404 50.6905 60 51.3809 60Z" fill="#1A1A1A"/>
<path d="M55.1309 56.25C55.8212 56.25 56.3809 55.6904 56.3809 55C56.3809 54.3096 55.8212 53.75 55.1309 53.75C54.4405 53.75 53.8809 54.3096 53.8809 55C53.8809 55.6904 54.4405 56.25 55.1309 56.25Z" fill="#1A1A1A"/>
<path d="M50.1309 53.75C50.8212 53.75 51.3809 53.1904 51.3809 52.5C51.3809 51.8096 50.8212 51.25 50.1309 51.25C49.4405 51.25 48.8809 51.8096 48.8809 52.5C48.8809 53.1904 49.4405 53.75 50.1309 53.75Z" fill="#1A1A1A"/>
<path d="M38.8809 41.25H58.8809C59.2124 41.25 59.5303 41.1183 59.7647 40.8839C59.9992 40.6495 60.1309 40.3315 60.1309 40V35C60.1309 34.6685 59.9992 34.3505 59.7647 34.1161C59.5303 33.8817 59.2124 33.75 58.8809 33.75H38.8809C38.5493 33.75 38.2314 33.8817 37.997 34.1161C37.7626 34.3505 37.6309 34.6685 37.6309 35V40C37.6309 40.3315 37.7626 40.6495 37.997 40.8839C38.2314 41.1183 38.5493 41.25 38.8809 41.25ZM40.1309 36.25H57.6309V38.75H40.1309V36.25Z" fill="#1A1A1A"/>
<path d="M53.8809 68.75H43.8809C43.5493 68.75 43.2314 68.8817 42.997 69.1161C42.7626 69.3505 42.6309 69.6685 42.6309 70C42.6309 70.3315 42.7626 70.6495 42.997 70.8839C43.2314 71.1183 43.5493 71.25 43.8809 71.25H53.8809C54.2124 71.25 54.5303 71.1183 54.7647 70.8839C54.9992 70.6495 55.1309 70.3315 55.1309 70C55.1309 69.6685 54.9992 69.3505 54.7647 69.1161C54.5303 68.8817 54.2124 68.75 53.8809 68.75Z" fill="#1A1A1A"/>
<path d="M16.3809 65H22.6309C22.9624 65 23.2803 64.8683 23.5147 64.6339C23.7492 64.3995 23.8809 64.0815 23.8809 63.75C23.8809 63.4185 23.7492 63.1005 23.5147 62.8661C23.2803 62.6317 22.9624 62.5 22.6309 62.5H16.3809C16.0493 62.5 15.7314 62.6317 15.497 62.8661C15.2626 63.1005 15.1309 63.4185 15.1309 63.75C15.1309 64.0815 15.2626 64.3995 15.497 64.6339C15.7314 64.8683 16.0493 65 16.3809 65Z" fill="#1A1A1A"/>
<path d="M11.3809 65C12.0712 65 12.6309 64.4404 12.6309 63.75C12.6309 63.0596 12.0712 62.5 11.3809 62.5C10.6905 62.5 10.1309 63.0596 10.1309 63.75C10.1309 64.4404 10.6905 65 11.3809 65Z" fill="#1A1A1A"/>
</svg>
