<svg width="81" height="80" viewBox="0 0 81 80" fill="none" xmlns="http://www.w3.org/2000/svg">
<g clip-path="url(#clip0_622_2902)">
<path d="M53.3895 62.3116C48.5134 62.1918 45.4164 59.8367 43.6336 57.6884C42.0369 55.765 41.3356 53.1195 40.5239 50.0557C39.3947 45.7938 37.9891 40.4892 33.5811 35.6054C29.211 30.7638 23.8069 28.6552 19.0389 26.7949C11.9997 24.049 9.14324 22.6853 9.14324 16.4329C9.14324 15.7491 9.14568 14.2674 10.4054 12.5612C4.81585 16.258 1.23675 20.9173 1.32281 26.0384C1.54681 39.3646 15.3353 36.9099 23.5616 46.0243C32.2609 55.6629 25.4341 65.0385 43.058 71.894C52.3171 75.4954 67.8285 70.7314 75.6056 51.4891C75.414 51.7325 63.6653 62.5642 53.3895 62.3116Z" fill="#EA3942"/>
<path d="M78.9401 37.5354C78.9401 53.6534 65.4037 70.2379 47.9336 66.7196C29.3484 62.9764 36.6281 51.2108 27.9293 41.5723C19.7024 32.4578 5.02832 35.9393 5.02832 21.5876C5.02832 8.58425 27.4929 5.11189 47.9336 8.35186C64.8477 11.0329 78.9401 21.4175 78.9401 37.5354Z" fill="#F3E8D7"/>
<path d="M67.6628 16.2C70.6511 20.3609 72.3912 25.3132 72.3912 30.9743C72.3912 47.0916 58.8549 63.6761 41.3842 60.1579C38.7462 59.6271 36.6301 58.9336 34.915 58.1086C36.6545 61.9405 39.843 65.0906 47.9332 66.7198C65.4033 70.238 78.9397 53.6535 78.9397 37.5356C78.9397 28.511 74.5208 21.2843 67.6628 16.2Z" fill="#E5D6C1"/>
<path d="M52.6376 61.4286C50.0271 61.5418 47.4136 61.1045 45.0143 60.0306C43.3901 59.3035 41.8539 58.2798 40.8132 56.8335C39.6816 55.2612 39.2172 53.3189 38.7326 51.4421C37.7017 47.4481 36.4382 43.4327 34.0835 40.0484C30.6063 35.0508 25.0497 31.8769 19.3417 29.775C17.3318 29.035 15.2456 28.3886 13.5049 27.1386C11.7642 25.8892 10.3952 23.8717 10.5697 21.7332C10.7943 18.9855 13.3706 17.0597 15.8828 15.9351C22.8036 12.8376 30.8114 12.3857 38.2803 12.9495C45.895 13.5238 54.0322 14.9212 60.7937 18.6326C67.471 22.2976 72.4264 28.6277 73.0929 36.3326C73.7484 43.9121 70.2322 52.0915 64.3588 56.9209C61.0739 59.6221 56.86 61.2458 52.6376 61.4286Z" fill="#FC4E51"/>
<path d="M73.0933 36.3327C72.5037 29.5176 68.5571 23.7795 63.0322 20.0081C64.917 22.853 66.1407 26.1174 66.449 29.6754C67.1045 37.2549 63.5883 45.4343 57.7148 50.2637C54.4293 52.9649 50.2155 54.5885 45.993 54.7714C43.7427 54.8686 41.4905 54.5561 39.375 53.7801C39.718 54.8668 40.1514 55.9131 40.8136 56.8335C41.8542 58.2798 43.3905 59.3036 45.0146 60.0307C47.4133 61.1046 50.0269 61.5418 52.6379 61.4287C56.8597 61.2458 61.0742 59.6222 64.3591 56.921C70.2332 52.0916 73.7488 43.9122 73.0933 36.3327Z" fill="#EA3942"/>
<path d="M37.6833 23.4975C37.6833 26.2017 35.4952 28.3941 32.7963 28.3941C30.0973 28.3941 27.9092 26.2017 27.9092 23.4975C27.9092 20.7932 30.0973 18.6008 32.7963 18.6008C35.4952 18.6008 37.6833 20.7932 37.6833 23.4975Z" fill="#F3E8D7"/>
<path d="M70.5641 17.0077C64.9336 12.0683 56.963 8.57573 48.119 7.17406C40.2772 5.93079 32.1748 5.68923 25.3041 6.49464C17.7211 7.38321 11.7909 9.49794 8.15502 12.6101C7.96276 12.7746 7.77782 12.9422 7.59838 13.1122C2.63683 16.9906 0.0550401 21.4659 0.132555 26.0586C0.199693 30.0551 1.44481 33.1299 3.93993 35.4587C6.12621 37.4994 8.97899 38.7555 11.9996 40.085C15.749 41.7356 19.626 43.4418 22.6789 46.8249C25.8033 50.2868 26.8214 53.758 27.8053 57.1154C28.6354 59.9444 29.4929 62.8706 31.5846 65.5889C33.9222 68.6277 37.4311 70.9846 42.6271 73.0058C44.6577 73.7959 46.9001 74.1842 49.2299 74.1842C52.9139 74.1842 56.8165 73.2119 60.439 71.3155C65.3071 68.7659 72.0668 63.3513 76.667 52.0377C78.8905 47.5422 80.1307 42.5275 80.1307 37.5355C80.1307 29.597 76.8226 22.4988 70.5641 17.0077ZM59.3354 69.2013C54.0217 71.9845 48.0976 72.5752 43.4889 70.7822C33.1111 66.7454 31.7109 61.971 30.0898 56.4427C29.0791 52.9966 27.9341 49.0913 24.4441 45.2251C21.0493 41.4635 16.75 39.5707 12.9567 37.9012C7.19066 35.3627 2.63622 33.358 2.51232 26.0182C2.48058 24.1267 3.01708 22.3875 3.86302 20.8268C3.84776 21.0782 3.83739 21.3307 3.83739 21.587C3.83739 25.8855 5.10692 29.1225 7.718 31.4836C10.0062 33.5525 12.9951 34.7187 16.1592 35.9528C20.0239 37.4603 24.0199 39.0191 27.046 42.3722C30.0837 45.7382 31.0597 49.4197 32.0027 52.9801C32.8566 56.2011 33.6622 59.2435 35.8607 61.8915C38.318 64.852 42.0796 66.7576 47.6985 67.889C49.3324 68.218 50.9657 68.3806 52.5843 68.3806C57.2493 68.3806 61.7903 67.0291 65.8528 64.4197C63.5511 66.6653 61.2794 68.1831 59.3354 69.2013ZM74.6077 50.8397C74.5674 50.9027 74.5314 50.9699 74.5021 51.0415C74.4886 51.0757 74.474 51.1081 74.4606 51.1418C72.6075 54.8349 70.0361 58.1409 66.9111 60.7051C63.7776 63.2767 58.9686 66.0109 52.6893 66.0109C51.258 66.0109 49.7493 65.8684 48.1678 65.5504C37.2126 63.344 35.9291 58.5005 34.3043 52.3679C33.3351 48.7115 32.237 44.567 28.8124 40.7724C25.4084 37.001 20.9535 35.263 17.0228 33.7298C10.9864 31.3748 6.21837 29.5151 6.21837 21.587C6.21837 18.8118 7.39025 16.4017 9.70165 14.4239C14.2524 10.5284 23.2185 8.40388 33.8429 8.40388C38.2569 8.40388 42.9585 8.77081 47.7473 9.52974C56.1525 10.8623 63.6988 14.1555 68.9955 18.802C74.723 23.8271 77.7497 30.3052 77.7497 37.5355C77.7497 42.1135 76.6249 46.7093 74.6077 50.8397Z" fill="#1A1A1A"/>
<path d="M73.1922 38.8468C72.5348 38.793 71.9611 39.2791 71.9061 39.9353C71.4166 45.7572 68.5144 51.6085 64.2682 55.4252C62.7112 54.188 62.0996 52.1925 61.1603 49.122C60.3784 46.5639 59.4049 43.3802 57.5092 39.4901C55.7007 35.778 52.3401 32.6298 48.8617 30.15C51.4911 28.6138 57.8461 25.7224 67.8644 26.1731C69.7998 28.7177 71.1121 31.6018 71.6687 34.6552C71.7737 35.2307 72.2742 35.6337 72.8382 35.6337C72.9096 35.6337 72.9816 35.627 73.0536 35.6141C73.7006 35.4955 74.129 34.8742 74.0106 34.2259C73.3551 30.6319 71.7731 27.2537 69.4373 24.3158C69.4208 24.2926 69.4025 24.27 69.3836 24.2473C67.2766 21.6165 64.5636 19.3421 61.366 17.587C55.47 14.3501 48.1629 12.4989 38.3698 11.7602C29.1132 11.0612 21.5991 12.0715 15.398 14.8467C12.5049 16.1413 10.5646 17.9227 9.76991 19.9702C9.76381 19.9861 9.75771 20.002 9.7516 20.0185C9.55385 20.542 9.42873 21.082 9.38356 21.6366C9.19252 23.9734 10.506 26.4538 12.8119 28.1086C14.079 29.0186 15.4932 29.6167 16.5839 30.0356C17.1973 30.2723 17.8858 29.9647 18.1214 29.3495C18.3569 28.7349 18.0506 28.0444 17.4365 27.809C16.4197 27.4176 15.2393 26.9173 14.1986 26.1694C12.9218 25.2527 11.6095 23.6315 11.7566 21.8311C11.7633 21.7522 11.7737 21.6678 11.7877 21.5798C17.3737 21.4728 23.7189 22.5797 26.7273 23.1832C26.7218 23.2872 26.7194 23.3924 26.7194 23.4976C26.7194 26.855 29.4458 29.5867 32.7966 29.5867C34.9591 29.5867 36.8604 28.4487 37.9376 26.7394C41.9037 28.5025 51.9568 33.5324 55.3699 40.5365C57.1832 44.2583 58.1262 47.3424 58.8837 49.8204C59.823 52.8915 60.5499 55.268 62.3578 56.9339C59.4898 58.9 56.0077 60.0888 52.5861 60.2374C50.0507 60.3475 47.6666 59.9115 45.5005 58.9422C43.8342 58.1961 42.5824 57.2525 41.7792 56.1364C40.8307 54.8179 40.4041 53.1588 39.9524 51.4024L39.8859 51.1431C38.8538 47.1455 37.5556 42.9521 35.0611 39.3666C32.3602 35.4857 28.1879 32.2769 22.6587 29.8295C22.0575 29.5629 21.3544 29.8356 21.0889 30.4386C20.8234 31.041 21.095 31.7449 21.6968 32.0115C26.8207 34.2798 30.6598 37.2133 33.1079 40.7309C35.3876 44.007 36.6046 47.9588 37.5806 51.7406L37.6471 51.9981C38.1336 53.8908 38.6371 55.8484 39.8486 57.5313C40.9003 58.9929 42.475 60.2001 44.5294 61.1199C46.7847 62.1296 49.2334 62.6396 51.8207 62.6396C52.1082 62.6396 52.3981 62.6329 52.6892 62.6206C57.1765 62.4255 61.5735 60.7395 65.0769 57.8732C65.08 57.8708 65.083 57.8683 65.0855 57.8659C65.0952 57.8579 65.105 57.8506 65.1142 57.8432C70.2777 53.5979 73.703 46.9785 74.278 40.1353C74.3335 39.4791 73.8471 38.9018 73.1922 38.8468ZM36.4826 23.7679C36.3855 24.4522 36.3593 24.8827 35.7892 25.6686C35.1166 26.5963 34.0265 27.2017 32.7966 27.2017C30.7715 27.2017 29.1223 25.5616 29.101 23.5373C29.1779 22.28 29.6326 21.5847 29.6326 21.5847C30.2808 20.512 31.4563 19.7934 32.7966 19.7934C34.8352 19.7934 36.4935 21.4556 36.4935 23.4976C36.4935 23.5887 36.4887 23.6786 36.4826 23.7679ZM38.7903 24.5017C38.8446 24.1746 38.8739 23.8394 38.8739 23.4976C38.8739 20.1396 36.1475 17.4078 32.7966 17.4078C30.3858 17.4078 28.2984 18.8217 27.3169 20.8649C24.4934 20.2906 18.6505 19.251 13.0835 19.1892C13.775 18.4713 14.8139 17.7203 16.369 17.0244C22.2003 14.4149 29.3384 13.4713 38.1909 14.1385C47.6337 14.8509 54.6344 16.6116 60.2216 19.6791C62.2907 20.8147 64.1345 22.1864 65.7153 23.7391C55.0293 23.7428 48.728 27.3075 46.6882 28.689C43.5523 26.7015 40.5658 25.2796 38.7903 24.5017Z" fill="#1A1A1A"/>
</g>
<defs>
<clipPath id="clip0_622_2902">
<rect width="80" height="80" fill="white" transform="translate(0.130859)"/>
</clipPath>
</defs>
</svg>
