<svg width="81" height="80" viewBox="0 0 81 80" fill="none" xmlns="http://www.w3.org/2000/svg">
<path d="M77.6369 44.9375V47.5625C77.6369 51.9875 75.7869 56.1875 72.5744 59.2125L67.7119 58.475C69.2744 55.9 70.1369 52.9 70.1369 49.8V45.2C70.1369 42.6125 69.5369 40.1 68.4369 37.85C67.6244 36.175 66.5119 34.65 65.1494 33.3375L65.1619 33.325C65.8619 32.05 67.1994 31.25 68.6869 31.25C69.5494 31.25 70.3869 31.525 71.0869 32.0375C75.2119 35.0875 77.6369 39.8625 77.6369 44.9375Z" fill="#FCD770"/>
<path d="M63.6867 32.05C64.2117 32.45 64.7117 32.875 65.1492 33.3375C66.5117 34.65 67.6242 36.175 68.4367 37.85C69.5367 40.1 70.1367 42.6125 70.1367 45.2V49.8C70.1367 52.9 69.2742 55.9 67.7117 58.475L55.9867 56.675V56.6625C55.4242 54.5 55.1367 52.2875 55.1367 50.0375V44.9625C55.1367 43.225 55.3117 41.4875 55.6492 39.7875C56.2617 39.925 56.9242 40 57.6367 40C60.3992 40 62.6367 38.875 62.6367 37.5C62.6367 36.6125 61.7117 35.8375 60.3242 35.4L60.6992 31.3C60.8992 31.2625 61.1117 31.25 61.3242 31.25C62.1742 31.25 63.0117 31.5375 63.6867 32.05Z" fill="#FCD770"/>
<path d="M48.5992 31.7875C49.2617 32.1625 49.7992 32.7125 50.1617 33.4V33.4125C46.9742 36.475 45.1367 40.725 45.1367 45.2V49.8C45.1367 51.6375 45.4492 53.4375 46.0367 55.1375L39.0242 54.0625C38.1242 52.0375 37.6367 49.8375 37.6367 47.5625V44.9375C37.6367 44 37.7242 43.0625 37.8867 42.15C37.9367 41.8875 37.9867 41.625 38.0492 41.3625C38.8992 37.675 41.0492 34.3625 44.1867 32.0375C44.8867 31.525 45.7242 31.25 46.5867 31.25C47.3117 31.25 47.9992 31.4375 48.5992 31.7875Z" fill="#FCD770"/>
<path d="M54.5742 31.275L54.9492 35.4C53.5617 35.8375 52.6367 36.6125 52.6367 37.5C52.6367 38.525 53.8742 39.4 55.6492 39.7875C55.3117 41.4875 55.1367 43.225 55.1367 44.9625V50.0375C55.1367 52.2875 55.4242 54.5 55.9867 56.6625L48.1367 55.4625L46.0367 55.1375C45.4492 53.4375 45.1367 51.6375 45.1367 49.8V45.2C45.1367 40.725 46.9742 36.475 50.1617 33.4125V33.4C50.6617 32.9125 51.1867 32.4625 51.7492 32.05C52.4492 31.5375 53.2992 31.25 54.1742 31.25C54.3117 31.25 54.4367 31.2625 54.5617 31.275H54.5742Z" fill="#FCD770"/>
<path d="M62.6367 37.5C62.6367 38.875 60.3992 40 57.6367 40C56.9242 40 56.2617 39.925 55.6492 39.7875C53.8742 39.4 52.6367 38.525 52.6367 37.5C52.6367 36.6125 53.5617 35.8375 54.9492 35.4L54.5742 31.275L53.8992 23.9125C53.8867 23.8 53.8867 23.7 53.8867 23.5875C53.8867 21.6 55.4867 20 57.4742 20H57.7992C58.7867 20 59.6867 20.4 60.3367 21.05C60.9867 21.7 61.3867 22.6 61.3867 23.5875C61.3867 23.7 61.3867 23.8 61.3742 23.9125L60.6992 31.3L60.3242 35.4C61.7117 35.8375 62.6367 36.6125 62.6367 37.5Z" fill="#CF9E76"/>
<path d="M30.0242 7.6625C30.4617 7.5625 30.9242 7.5 31.3867 7.5C33.4242 7.5 35.2492 8.475 36.3867 10L36.3617 10.125C35.9617 10.0375 35.5617 10 35.1367 10C32.5492 10 30.3367 11.5625 29.3867 13.8C29.2242 13.7875 29.0617 13.75 28.8867 13.75C25.7492 13.75 23.1742 16.075 22.7242 19.0875C19.0742 20.1375 16.3867 23.5 16.3867 27.5C16.3867 30.9125 18.3367 33.85 21.1867 35.3C20.5242 36.2875 20.1367 37.475 20.1367 38.75C20.1367 40.975 21.3117 42.9125 23.0617 44.025C22.7992 44.7125 22.6367 45.4625 22.6367 46.25C22.6367 49.7 25.4367 52.5375 28.8867 52.5375C28.5617 52.5125 28.2492 52.5 27.9367 52.5H27.6367C25.1992 52.5 22.9242 53.2 20.9992 54.4125L17.6367 45C14.1867 45 11.3867 42.2 11.3867 38.75C11.3867 37.9625 11.5492 37.2125 11.8117 36.525C10.0617 35.4125 8.88672 33.475 8.88672 31.25C8.88672 29.975 9.27422 28.7875 9.93672 27.8C7.08672 26.35 5.13672 23.4125 5.13672 20C5.13672 16 7.82422 12.6375 11.4742 11.5875C11.9242 8.575 14.4992 6.25 17.6367 6.25C17.8117 6.25 17.9742 6.2875 18.1367 6.3C19.0867 4.0625 21.2992 2.5 23.8867 2.5C26.9617 2.5 29.5117 4.725 30.0242 7.6625Z" fill="#8CC152"/>
<path d="M47.0867 25.625C48.1992 26.75 48.8867 28.3 48.8867 30C48.8867 30.5875 48.7992 31.1625 48.6492 31.7L48.5992 31.7875C47.9992 31.4375 47.3117 31.25 46.5867 31.25C45.7242 31.25 44.8867 31.525 44.1867 32.0375C41.0492 34.3625 38.8992 37.675 38.0492 41.3625C37.9867 41.625 37.9367 41.8875 37.8867 42.15C37.7242 43.0625 37.6367 44 37.6367 44.9375V47.5625C37.6367 49.8375 38.1242 52.0375 39.0242 54.0625L29.8367 52.65C29.5117 52.6 29.1992 52.5625 28.8867 52.5375C25.4367 52.5375 22.6367 49.7 22.6367 46.25C22.6367 45.4625 22.7992 44.7125 23.0617 44.025C21.3117 42.9125 20.1367 40.975 20.1367 38.75C20.1367 37.475 20.5242 36.2875 21.1867 35.3C18.3367 33.85 16.3867 30.9125 16.3867 27.5C16.3867 23.5 19.0742 20.1375 22.7242 19.0875C23.1742 16.075 25.7492 13.75 28.8867 13.75C29.0617 13.75 29.2242 13.7875 29.3867 13.8C30.3367 11.5625 32.5492 10 35.1367 10C35.5617 10 35.9617 10.0375 36.3617 10.125C38.8742 10.625 40.8367 12.625 41.2742 15.1625C41.7117 15.0625 42.1742 15 42.6367 15C46.0867 15 48.8867 17.8 48.8867 21.25C48.8867 22.95 48.1992 24.5 47.0867 25.625Z" fill="#B4DD7F"/>
<path d="M8.63672 62.5H15.3867C15.2242 63.3 15.1367 64.1375 15.1367 65C15.1367 65.8625 15.2242 66.7 15.3867 67.5H8.63672H5.13672C4.44922 67.5 3.82422 67.225 3.37422 66.7625C2.91172 66.3125 2.63672 65.6875 2.63672 65C2.63672 63.625 3.76172 62.5 5.13672 62.5H8.63672Z" fill="#B4DD7F"/>
<path d="M9.12422 57.55L16.5617 59.2125C16.0242 60.2375 15.6242 61.3375 15.3867 62.5H8.63672C7.39922 62.5 6.38672 61.4875 6.38672 60.25V59.75C6.38672 58.5125 7.39922 57.5 8.63672 57.5C8.79922 57.5 8.96172 57.5125 9.12422 57.55Z" fill="#B4DD7F"/>
<path d="M16.5617 70.7875L9.12422 72.45C8.96172 72.4875 8.79922 72.5 8.63672 72.5C7.39922 72.5 6.38672 71.4875 6.38672 70.25V69.75C6.38672 68.5125 7.39922 67.5 8.63672 67.5H15.3867C15.6242 68.6625 16.0242 69.7625 16.5617 70.7875Z" fill="#B4DD7F"/>
<path d="M76.2367 61.2C75.3492 60.175 74.1117 59.45 72.6992 59.2375L72.5742 59.2125L67.7117 58.475L55.9867 56.675V56.6625L48.1367 55.4625L46.0367 55.1375L39.0242 54.0625L29.8367 52.65C29.5117 52.6 29.1992 52.5625 28.8867 52.5375C28.5617 52.5125 28.2492 52.5 27.9367 52.5H27.6367C25.1992 52.5 22.9242 53.2 20.9992 54.4125C19.1242 55.5875 17.5867 57.25 16.5617 59.2125C16.0242 60.2375 15.6242 61.3375 15.3867 62.5C15.2242 63.3 15.1367 64.1375 15.1367 65C15.1367 65.8625 15.2242 66.7 15.3867 67.5C15.6242 68.6625 16.0242 69.7625 16.5617 70.7875C17.1492 71.9125 17.9117 72.95 18.7992 73.8375C21.0617 76.1 24.1867 77.5 27.6367 77.5H27.9367C28.5617 77.5 29.1992 77.45 29.8367 77.35L48.1367 74.5375L72.6992 70.7625C75.5367 70.325 77.6367 67.875 77.6367 65C77.6367 63.5625 77.1117 62.225 76.2367 61.2Z" fill="#FF826E"/>
<path d="M78.8867 44.9363C78.8867 39.4938 76.248 34.2962 71.828 31.0337C70.9267 30.3662 69.8092 30 68.683 30C67.273 30 65.9517 30.5638 64.9817 31.5225C64.8005 31.3713 64.6355 31.205 64.448 31.0613C63.7542 30.5313 62.9217 30.2162 62.0667 30.0863L62.618 24.025C62.6305 23.88 62.6367 23.7338 62.6367 23.5875C62.6367 20.92 60.4667 18.75 57.7992 18.75H57.4742C54.8067 18.75 52.6367 20.92 52.6367 23.5875C52.6367 23.7338 52.643 23.88 52.6567 24.0263L53.2105 30.1138C52.418 30.2638 51.6517 30.57 51.0042 31.0525C50.7805 31.22 50.5817 31.4125 50.3667 31.5887C50.2555 31.4737 50.138 31.3663 50.0167 31.2625C50.088 30.8463 50.1367 30.425 50.1367 30C50.1367 28.4125 49.6417 26.8937 48.7242 25.625C49.6417 24.3563 50.1367 22.8388 50.1367 21.25C50.1367 16.97 46.5155 13.5012 42.2005 13.7638C41.398 11.4637 39.5267 9.73 37.2267 9.06125C35.7042 7.1625 33.4092 6.10875 30.9505 6.26375C29.9155 3.2975 27.113 1.25 23.8867 1.25C21.1805 1.25 18.7167 2.6975 17.3892 5.00375C14.0792 5.115 11.218 7.45125 10.398 10.6337C6.52797 12.0775 3.88672 15.8237 3.88672 20C3.88672 23.3487 5.53422 26.41 8.26047 28.26C7.84922 29.1987 7.63672 30.2138 7.63672 31.25C7.63672 33.5 8.63672 35.5913 10.353 37.0075C10.2092 37.5875 10.1367 38.1712 10.1367 38.75C10.1367 42.58 13.0242 45.75 16.7367 46.1963L19.5017 53.94C18.0855 54.9837 16.8792 56.29 15.9505 57.79L9.40172 56.335C9.15297 56.2775 8.89672 56.25 8.63922 56.25C6.70797 56.25 5.13672 57.8212 5.13672 59.7525V60.2475C5.13672 60.5975 5.20422 60.93 5.30047 61.25H5.13672C3.06922 61.25 1.38672 62.9325 1.38672 65C1.38672 67.0675 3.06922 68.75 5.13672 68.75H5.30047C5.20422 69.07 5.13672 69.4025 5.13672 69.7525V70.2475C5.13672 72.1787 6.70797 73.75 8.63922 73.75C8.89672 73.75 9.15297 73.7225 9.39922 73.6662L15.9505 72.21C18.3767 76.1275 22.7005 78.75 27.6367 78.75H27.9305C28.6255 78.75 29.3292 78.6963 30.0205 78.59L72.8842 71.9962C76.3617 71.46 78.8867 68.5188 78.8867 65C78.8867 62.1862 77.258 59.765 74.833 58.6237C77.423 55.53 78.8867 51.605 78.8867 47.5637V44.9363ZM62.928 33.0475C66.6592 35.9 68.8867 40.4438 68.8867 45.205V49.7963C68.8867 52.3588 68.248 54.8675 67.0442 57.1063L57.0205 55.5638C56.608 53.75 56.3867 51.8975 56.3867 50.0375V44.9625C56.3867 43.7025 56.513 42.4438 56.7042 41.1963C57.0105 41.2225 57.3155 41.25 57.6367 41.25C61.2005 41.25 63.8867 39.6375 63.8867 37.5C63.8867 36.32 63.0705 35.2725 61.6567 34.585L61.8405 32.5625C62.2305 32.6412 62.6055 32.7987 62.928 33.0475ZM57.4742 21.25H57.8005C59.0892 21.25 60.138 22.2988 60.138 23.5875C60.138 23.6588 60.1355 23.73 60.128 23.8L58.993 36.2838L59.9467 36.59C61.0417 36.94 61.3867 37.4012 61.3867 37.5C61.3867 37.8112 60.0567 38.75 57.6367 38.75C55.2167 38.75 53.8867 37.8112 53.8867 37.5C53.8867 37.4012 54.2317 36.94 55.3267 36.5887L56.2805 36.2825L55.1455 23.8C55.1392 23.7288 55.1367 23.6575 55.1367 23.5875C55.1367 22.2988 56.1855 21.25 57.4742 21.25ZM53.4367 32.6038L53.6167 34.585C52.203 35.2725 51.3867 36.32 51.3867 37.5C51.3867 38.8775 52.5105 40.0287 54.2567 40.6787C54.033 42.0975 53.8867 43.53 53.8867 44.9625V50.0375C53.8867 51.755 54.0517 53.47 54.3717 55.1562L47.003 54.0225C46.6017 52.6487 46.3867 51.2325 46.3867 49.795V45.2037C46.3867 40.45 48.6717 35.9075 52.4992 33.055C52.778 32.8475 53.0992 32.695 53.4367 32.6038ZM39.928 52.9338C39.2492 51.2163 38.8867 49.4175 38.8867 47.5637V44.935C38.8867 40.2825 41.1467 35.8375 44.9305 33.0425C45.4055 32.6925 45.9955 32.5 46.5905 32.5C47.3455 32.5 48.0405 32.8037 48.5492 33.3125C45.6017 36.5425 43.8867 40.785 43.8867 45.205V49.7963C43.8867 51.085 44.0405 52.36 44.3192 53.61L39.928 52.9338ZM40.0455 15.3762L40.273 16.6625L41.548 16.3787C41.9355 16.2925 42.2917 16.25 42.6367 16.25C45.3942 16.25 47.6367 18.4925 47.6367 21.25C47.6367 22.5637 47.1267 23.8062 46.2017 24.7487L45.3417 25.625L46.2017 26.5013C47.1267 27.4438 47.6367 28.6863 47.6367 30C47.6367 30.0375 47.6292 30.075 47.6292 30.1138C47.2905 30.0462 46.9455 30 46.5905 30C45.4642 30 44.3467 30.3663 43.4455 31.0325C41.1705 32.7113 39.3792 34.9075 38.1642 37.3813C37.6905 35.9062 37.193 34.4937 36.6805 33.1525C37.8367 27.045 42.1255 23.51 42.1692 23.4737L41.3867 22.5L40.6055 21.5238C40.4317 21.6625 37.0505 24.4237 35.1517 29.405C32.5505 23.4325 30.0955 19.5688 29.938 19.3237L27.8342 20.6763C27.868 20.7275 29.7742 23.7262 31.993 28.5C28.2542 27.0925 24.0055 27.4812 23.7617 27.5062L24.0105 29.9938C25.8905 29.805 31.2155 29.8962 33.703 32.435C34.5792 34.5887 35.443 36.95 36.2055 39.48C32.4055 37.5312 27.8717 37.5 27.6367 37.5V40C27.6955 40 33.2605 40.0375 36.5542 42.6562C36.4517 43.4087 36.3867 44.1688 36.3867 44.9363V47.565C36.3867 49.2537 36.6467 50.905 37.1292 52.505L30.0205 51.4113C29.6455 51.3538 29.2667 51.315 28.8867 51.2875C26.1292 51.2875 23.8867 49.0275 23.8867 46.2513C23.8867 45.6688 24.003 45.0712 24.2305 44.4725L24.5955 43.5163L23.7292 42.9688C22.263 42.0412 21.3867 40.465 21.3867 38.75C21.3867 37.7663 21.6755 36.8125 22.2217 35.99L23.0005 34.82L21.748 34.1838C19.2117 32.8938 17.6367 30.3337 17.6367 27.5C17.6367 24.1737 19.8717 21.2113 23.073 20.295L23.8492 20.0725L23.9655 19.2738C24.3217 16.8375 26.438 15 28.8867 15C28.933 15 28.978 15.01 29.023 15.0162C29.1105 15.0287 29.1992 15.04 29.288 15.0462L30.1842 15.1188L30.5367 14.2912C31.3255 12.4437 33.1305 11.25 35.1367 11.25C37.5592 11.25 39.623 12.985 40.0455 15.3762ZM18.518 43.75H17.6367C14.8792 43.75 12.6367 41.5075 12.6367 38.75C12.6367 38.1662 12.753 37.5687 12.9805 36.9725L13.3467 36.0163L12.4805 35.4688C11.013 34.5412 10.1367 32.965 10.1367 31.25C10.1367 30.2663 10.4255 29.3125 10.9717 28.49L11.7505 27.32L10.498 26.6838C7.96172 25.3938 6.38672 22.8337 6.38672 20C6.38672 16.6737 8.62172 13.7113 11.8217 12.795L12.598 12.5725L12.7142 11.7737C13.0717 9.3375 15.188 7.5 17.6367 7.5C17.6842 7.5 17.7305 7.51 17.7767 7.51625C17.8617 7.5275 17.9467 7.53875 18.0342 7.54625L18.9342 7.62125L19.288 6.79C20.0755 4.94375 21.8805 3.75 23.8867 3.75C26.3092 3.75 28.373 5.485 28.7955 7.87625L29.023 9.1625L30.298 8.87875C30.6855 8.7925 31.0417 8.75 31.3867 8.75C31.9617 8.75 32.508 8.87625 33.0305 9.05875C31.193 9.59625 29.6105 10.8162 28.6392 12.5037C25.3292 12.615 22.468 14.9513 21.648 18.1338C17.778 19.5775 15.1367 23.3237 15.1367 27.5C15.1367 30.8487 16.7842 33.91 19.5105 35.76C19.0992 36.6987 18.8867 37.7137 18.8867 38.75C18.8867 41 19.8867 43.0912 21.603 44.5087C21.4592 45.0887 21.3867 45.6712 21.3867 46.25C21.3867 48.4463 22.3317 50.42 23.828 51.7975C23.0855 52.0125 22.3717 52.2912 21.6867 52.6225L18.518 43.75ZM7.63672 60.2475V59.7525C7.63672 59.125 8.24422 58.6413 8.85797 58.7738L14.8067 60.0962C14.6617 60.4738 14.5317 60.8575 14.4205 61.25H8.63922C8.08672 61.25 7.63672 60.8 7.63672 60.2475ZM3.88672 65C3.88672 64.3112 4.44797 63.75 5.13672 63.75H8.63922H13.9492C13.913 64.1625 13.8867 64.5775 13.8867 65C13.8867 65.4225 13.913 65.8375 13.9505 66.25H8.63922H5.13672C4.44797 66.25 3.88672 65.6888 3.88672 65ZM8.85547 71.2262C8.26297 71.3538 7.63672 70.8737 7.63672 70.2475V69.7525C7.63672 69.2 8.08672 68.75 8.63922 68.75H14.4192C14.5305 69.1425 14.6617 69.5263 14.8055 69.9037L8.85547 71.2262ZM76.3867 65C76.3867 67.2763 74.7542 69.1787 72.5055 69.525L29.643 76.1188C29.0755 76.2063 28.4992 76.25 27.9305 76.25H27.6367C21.4342 76.25 16.3867 71.2025 16.3867 65C16.3867 58.7975 21.4342 53.75 27.6367 53.75H27.9305C28.4992 53.75 29.0755 53.7938 29.6417 53.88L72.5042 60.4738C74.7542 60.8213 76.3867 62.7238 76.3867 65ZM76.3867 47.5637C76.3867 51.4087 74.8305 55.1287 72.123 57.8862L69.6392 57.5037C70.7805 55.1062 71.3867 52.4775 71.3867 49.795V45.2037C71.3867 40.7612 69.6942 36.4975 66.7867 33.2625C67.2917 32.7863 67.9617 32.5 68.683 32.5C69.2792 32.5 69.868 32.6925 70.343 33.045C74.1267 35.8375 76.3867 40.2838 76.3867 44.9363V47.5637Z" fill="#1A1A1A"/>
<path d="M26.3867 58.75H28.8867V71.25H26.3867V58.75Z" fill="#1A1A1A"/>
<path d="M36.3867 58.75H38.8867V71.25H36.3867V58.75Z" fill="#1A1A1A"/>
<path d="M46.3867 58.75H48.8867V71.25H46.3867V58.75Z" fill="#1A1A1A"/>
<path d="M56.3867 61.25H58.8867V68.75H56.3867V61.25Z" fill="#1A1A1A"/>
<path d="M66.3867 62.5H68.8867V67.5H66.3867V62.5Z" fill="#1A1A1A"/>
</svg>
